<svg width="671" height="685" viewBox="0 0 671 685" fill="none" xmlns="http://www.w3.org/2000/svg">
<path d="M361.092 241.185C361.058 239.01 360.996 238.577 361.49 236.504C365.134 231.761 383.547 228.392 389.736 228.414C393.073 228.426 395.62 228.351 397.175 231.653C404.962 231.895 412.317 231.708 420.149 232.167C426.287 232.527 432.694 233.494 438.668 233.777C438.78 241.967 439.31 250.146 440.256 258.282C446.498 260.153 453.461 262.238 459.433 264.859C460.125 269.471 460.657 274.043 461.324 278.623C465.059 279.897 468.523 281.081 472.179 282.557C475.387 283.508 477.994 284.309 481.119 285.497C483.673 299.199 494.034 379.098 496.765 382.644C496.814 382.706 496.861 382.77 496.909 382.834C496.501 383.483 496.429 383.545 496.135 384.252L496.826 384.546L496.662 385.224C498.912 384.329 501.231 383.646 503.526 382.879C517.254 381.088 527.377 382.064 537.424 392.658C532.26 396.609 527.165 398.268 520.68 398.8C519.402 398.784 518.169 398.778 516.892 398.714C509.228 398.622 505.038 396.799 497.795 394.109C501.433 424.16 506.348 456.491 510.81 486.561C502.185 483.32 496.448 480.865 487.489 478.364C443.029 466.079 395.831 468.081 352.571 484.088C348.442 490.811 344.766 495.253 336.488 497.283C330.236 498.811 323.635 497.817 318.11 494.516C314.437 492.283 312.037 489.606 309.795 485.999C258.069 465.04 200.179 465.244 148.601 486.565C148.321 486.687 148.041 486.809 147.762 486.93C150.294 472.699 152.632 458.435 154.775 444.141C155.866 437.026 156.981 428.064 158.351 421.158C149.684 420.855 137.728 419.342 134.453 409.47C131.639 400.989 141.63 396.323 143.174 392.836L143.641 392.945C145.017 390.674 145.715 390.772 148.33 389.529C150.411 388.854 152.551 386.898 154.441 386.647C158.92 386.052 155.531 383.888 153.481 380.628C152.459 379.222 151.511 378.783 151.161 376.995L150.987 376.17L150.655 375.579L150.826 374.256L149.837 373.485C150.419 373.079 150.451 372.973 151.15 372.82C163.106 370.202 169.52 357.788 164.805 346.232C166.982 346.238 167.386 347.601 168.248 346.033C170.664 340.376 167.517 339.823 170.302 334.456C173.598 328.105 155.194 338.736 155.493 331.704C155.591 329.386 151.844 328.468 150.042 328.05L149.601 328.038C148.333 327.041 147.995 327.024 147.807 325.416C153.673 328.098 158.862 330.047 165.431 330.216C168.082 329.852 169.793 329.955 172.444 330.012L173.234 329.035C173.828 326.471 176.894 313.054 174.653 311.742C174.933 311.685 175.641 311.646 175.87 311.453V311.409C175.617 311.188 175.801 311.329 175.253 311.085C176.808 309.864 178.252 299.057 178.251 296.939C179.048 295.381 177.644 294.267 176.712 292.936C180.073 290.682 179.933 289.744 180.988 285.884C184.168 284.866 187.341 283.824 190.506 282.76C194.59 281.154 197.122 280.19 201.334 279.093C202.324 274.736 202.906 269.691 203.529 265.22C209.099 263.696 216.387 261.021 222.011 259.151C222.817 250.979 222.892 242.337 223.558 234.054C256.998 228.815 287.213 231.267 314.911 253.225C319.521 256.88 323.552 261.241 327.753 265.357C335.71 256.282 348.861 243.653 361.092 241.185ZM330.116 484.54C328.882 485.403 327.527 485.836 325.966 485.535C322.034 476.427 297.214 462.435 288.165 458.437C250.87 441.96 209.427 442.65 171.739 456.885C178.004 426.945 182.805 394.845 187.842 364.605C192.48 336.762 197.771 308.106 201.397 280.23C198.447 281.445 194.265 283.304 191.292 284.027L190.506 282.76C187.341 283.824 184.168 284.866 180.988 285.884C179.933 289.744 180.073 290.682 176.712 292.936C177.644 294.267 179.048 295.381 178.251 296.939C178.252 299.057 176.808 309.864 175.253 311.085C175.801 311.329 175.617 311.188 175.87 311.409V311.453C175.641 311.646 174.933 311.685 174.653 311.742C176.894 313.054 173.828 326.471 173.234 329.035L172.444 330.012C169.793 329.955 168.082 329.852 165.431 330.216C158.862 330.047 153.673 328.098 147.807 325.416C147.995 327.024 148.333 327.041 149.601 328.038L150.042 328.05C151.844 328.468 155.591 329.386 155.493 331.704C155.194 338.736 173.598 328.105 170.302 334.456C167.517 339.823 170.664 340.376 168.248 346.033C167.386 347.601 166.982 346.238 164.805 346.232C169.52 357.788 163.106 370.202 151.15 372.82C150.451 372.973 150.419 373.079 149.837 373.485L150.826 374.256L150.655 375.579L150.987 376.17L151.161 376.995C151.511 378.783 152.459 379.222 153.481 380.628C155.531 383.888 158.92 386.052 154.441 386.647C152.551 386.898 150.411 388.854 148.33 389.529C145.715 390.772 145.017 390.674 143.641 392.945L143.174 392.836C141.63 396.323 131.639 400.989 134.453 409.47C137.728 419.342 149.684 420.855 158.351 421.158C156.981 428.064 155.866 437.026 154.775 444.141C152.632 458.435 150.294 472.699 147.762 486.93C148.041 486.809 148.321 486.687 148.601 486.565C200.179 465.244 258.069 465.04 309.795 485.999C312.037 489.606 314.437 492.283 318.11 494.516C323.635 497.817 330.236 498.811 336.488 497.283C344.766 495.253 348.442 490.811 352.571 484.088C395.831 468.081 443.029 466.079 487.489 478.364C496.448 480.865 502.185 483.32 510.81 486.561C506.348 456.491 501.433 424.16 497.795 394.109C505.038 396.799 509.228 398.622 516.892 398.714C518.169 398.778 519.402 398.784 520.68 398.8C527.165 398.268 532.26 396.609 537.424 392.658C527.377 382.064 517.254 381.088 503.526 382.879C501.231 383.646 498.912 384.329 496.662 385.224L496.826 384.546L496.135 384.252C496.429 383.545 496.501 383.483 496.909 382.834C496.861 382.77 496.814 382.706 496.765 382.644C494.034 379.098 483.673 299.199 481.119 285.497C477.994 284.309 475.387 283.508 472.179 282.557L470.615 283.567L461.463 280.229C463.51 296.766 466.557 314.254 469.22 330.735L478.194 387.678L484.786 429.836C485.957 437.321 487.726 449.585 489.466 456.842C480.359 453.366 473.123 450.543 463.569 448.269C432.222 441.054 399.375 444.309 370.055 457.537C359.711 462.172 336.511 475.486 330.116 484.54Z" fill="#0C0B0B"/>
<path d="M361.092 241.185C361.058 239.01 360.996 238.577 361.49 236.504C365.134 231.761 383.547 228.392 389.736 228.414C393.073 228.426 395.62 228.351 397.175 231.653L397.695 233.36C410.996 232.613 424.338 233.292 437.495 235.385C438.989 303.603 459.47 369.829 472.432 436.331C444.969 422.397 419.726 417.636 389.394 427.073C367.762 433.803 350.795 448.392 337.942 466.768C334.54 471.632 331.893 477.188 328.711 482.05C327.862 410.851 328.452 338.225 328.574 266.943C337.575 255.279 346.97 247.986 360.609 242.253L361.092 241.185Z" fill="#E4DCD1"/>
<path d="M361.092 241.185C361.058 239.01 360.996 238.577 361.49 236.504C365.134 231.761 383.547 228.392 389.736 228.414C393.073 228.426 395.62 228.351 397.175 231.653L397.695 233.36C395.73 233.79 395.089 233.513 394.283 234.729C393.836 240.975 394.086 248.931 394.134 255.281C394.181 267.497 394.442 279.711 394.917 291.918C395.433 305.352 395.82 323.933 397.314 337.174C390.902 330.516 383.919 322.577 377.556 316.258C373.306 321.56 364.811 332.264 360.146 337.016C360.306 328.042 362.503 247.2 360.609 242.253L361.092 241.185Z" fill="#492F1E"/>
<path d="M461.463 280.229L470.615 283.566L472.179 282.556C475.387 283.507 477.994 284.308 481.119 285.496C483.673 299.198 494.034 379.098 496.765 382.644C496.814 382.706 496.861 382.77 496.909 382.834C496.501 383.483 496.429 383.544 496.135 384.251L496.826 384.546L496.662 385.223C498.912 384.328 501.231 383.646 503.526 382.879C517.254 381.088 527.377 382.064 537.424 392.658C532.26 396.609 527.165 398.268 520.68 398.8C519.402 398.784 518.169 398.778 516.892 398.714C509.228 398.622 505.038 396.798 497.795 394.108C501.433 424.159 506.348 456.491 510.81 486.561C502.185 483.32 496.448 480.864 487.489 478.363C443.029 466.078 395.831 468.08 352.571 484.087C348.442 490.81 344.766 495.253 336.488 497.283C330.236 498.811 323.635 497.816 318.11 494.515C314.437 492.282 312.037 489.606 309.795 485.999C258.069 465.04 200.179 465.243 148.601 486.564C148.321 486.686 148.041 486.808 147.762 486.929C150.294 472.698 152.632 458.434 154.775 444.14C155.866 437.025 156.981 428.064 158.351 421.158C149.684 420.855 137.728 419.342 134.453 409.47C131.639 400.989 141.63 396.322 143.174 392.835L143.641 392.944C145.017 390.673 145.715 390.771 148.33 389.528C150.411 388.853 152.551 386.898 154.441 386.647C158.92 386.052 155.531 383.887 153.481 380.627C152.459 379.221 151.511 378.782 151.161 376.994L150.987 376.17L150.655 375.579L150.826 374.256L149.837 373.485C150.419 373.079 150.451 372.972 151.15 372.819C163.106 370.201 169.52 357.787 164.805 346.231C166.982 346.237 167.386 347.601 168.248 346.033C170.664 340.376 167.517 339.822 170.302 334.455C173.598 328.104 155.194 338.736 155.493 331.704C155.591 329.386 151.844 328.467 150.042 328.049L149.601 328.038C148.333 327.041 147.995 327.023 147.807 325.415C153.673 328.097 158.862 330.047 165.431 330.216C168.082 329.852 169.793 329.955 172.444 330.012L173.234 329.035C173.828 326.471 176.894 313.054 174.653 311.742C174.933 311.685 175.641 311.646 175.87 311.453V311.409C175.617 311.188 175.801 311.329 175.253 311.085C176.808 309.864 178.252 299.057 178.251 296.939C179.048 295.381 177.644 294.267 176.712 292.936C180.073 290.682 179.933 289.744 180.988 285.884C184.168 284.866 187.341 283.823 190.506 282.759L191.292 284.026C194.265 283.303 198.447 281.444 201.397 280.229C197.771 308.105 192.48 336.762 187.842 364.605C182.805 394.845 178.004 426.944 171.739 456.884C209.427 442.649 250.87 441.959 288.165 458.436C297.214 462.434 322.034 476.427 325.966 485.535C327.527 485.836 328.882 485.403 330.116 484.54C336.511 475.486 359.711 462.172 370.055 457.537C399.375 444.309 432.222 441.054 463.569 448.269C473.123 450.543 480.359 453.366 489.466 456.842C487.726 449.585 485.957 437.32 484.786 429.835L478.194 387.678L469.22 330.734C466.557 314.253 463.51 296.766 461.463 280.229ZM496.662 385.223L496.8 386.306C496.309 387.592 496.418 387.649 496.545 388.967C497.072 390.41 497.642 389.932 499.21 389.89C491.281 391.727 511.099 397.643 514.551 397.681C515.379 398.007 516.091 398.341 516.892 398.714C518.169 398.778 519.402 398.784 520.68 398.8C527.165 398.268 532.26 396.609 537.424 392.658C527.377 382.064 517.254 381.088 503.526 382.879C501.231 383.646 498.912 384.328 496.662 385.223ZM150.987 376.17C156.123 379.039 159.943 386.109 163.15 388.973L163.489 388.613C165.611 377.836 167.25 367.134 168.898 356.29C170.195 347.762 171.883 339.216 172.924 330.654C169.979 330.646 168.413 330.636 165.431 330.216C158.862 330.047 153.673 328.097 147.807 325.415C147.995 327.023 148.333 327.041 149.601 328.038L150.042 328.049C151.844 328.467 155.591 329.386 155.493 331.704C155.194 338.736 173.598 328.104 170.302 334.455C167.517 339.822 170.664 340.376 168.248 346.033C167.386 347.601 166.982 346.237 164.805 346.231C169.52 357.787 163.106 370.201 151.15 372.819C150.451 372.972 150.419 373.079 149.837 373.485L150.826 374.256L150.655 375.579L150.987 376.17Z" fill="#492F1E"/>
<path d="M191.293 284.026C194.266 283.303 198.448 281.444 201.398 280.229C197.772 308.105 192.481 336.762 187.843 364.605C182.806 394.845 178.005 426.944 171.74 456.884C209.428 442.649 250.871 441.959 288.166 458.436C297.215 462.434 322.035 476.427 325.967 485.535C322.555 483.754 319.536 481.385 315.372 479.366C268.501 456.63 207.164 456.013 158.445 472.212C162.027 452.21 165.104 430.939 168.336 410.829L180.274 339.801L185.629 306.651C186.435 301.709 188.026 286.882 191.293 284.026Z" fill="#D7BAA6"/>
<path d="M461.463 280.229L470.615 283.566C471.62 284.071 472.112 284.041 472.388 285.401C473.381 290.309 474.033 295.811 474.808 300.759C477.013 314.549 479.135 328.353 481.177 342.168C486.51 376.18 491.618 410.228 496.5 444.308C497.868 453.489 499.67 462.903 500.944 472.015C447.435 457.263 399.466 455.745 347.083 477.191C343.173 478.791 333.459 484.329 330.116 484.54C336.511 475.486 359.711 462.172 370.055 457.537C399.375 444.309 432.222 441.054 463.569 448.269C473.123 450.543 480.359 453.366 489.466 456.842C487.726 449.585 485.957 437.32 484.786 429.835L478.194 387.678L469.22 330.734C466.557 314.253 463.51 296.766 461.463 280.229Z" fill="#D7BAA6"/>
<path d="M150.987 376.17C156.123 379.039 159.943 386.11 163.15 388.974L162.728 389.142L163.145 390.23L162.787 392.425C162.355 396.121 161.676 399.875 161.131 403.565C161.172 404.372 161.225 404.398 160.955 405.117C160.172 409.849 159.031 415.434 158.673 420.161L158.351 421.158C149.684 420.855 137.728 419.342 134.453 409.47C131.639 400.989 141.63 396.323 143.174 392.836L143.641 392.945C145.017 390.674 145.715 390.772 148.33 389.529C150.411 388.854 152.551 386.898 154.441 386.647C158.92 386.052 155.531 383.888 153.481 380.628C152.459 379.222 151.511 378.783 151.161 376.995L150.987 376.17Z" fill="#BABCBD"/>
<path d="M150.987 376.17C156.123 379.039 159.943 386.11 163.151 388.974L162.728 389.142C156.538 389.235 150.509 390.04 144.979 393.029C144.307 393.392 144.098 393.449 143.642 392.945C145.018 390.674 145.715 390.772 148.331 389.529C150.411 388.854 152.551 386.898 154.442 386.647C158.92 386.052 155.531 383.888 153.482 380.628C152.459 379.222 151.511 378.783 151.162 376.995L150.987 376.17Z" fill="#FDFDFD"/>
<path d="M143.641 392.945C144.098 393.449 144.307 393.392 144.979 393.029C150.508 390.04 156.537 389.235 162.728 389.142L163.145 390.23C159.559 390.11 157.857 390.334 154.41 390.712C142.851 391.98 125.979 405.754 140.522 415.808C147.718 420.783 151.196 419.584 158.673 420.161L158.351 421.158C149.684 420.855 137.728 419.342 134.453 409.47C131.639 400.989 141.63 396.323 143.174 392.836L143.641 392.945Z" fill="#636566"/>
<path d="M160.956 405.116C159.313 404.303 155.092 404.657 153.155 404.786L150.16 404.97C149.583 405.002 148.242 405.266 147.734 404.874C146.687 404.069 149.779 403.936 149.779 403.936C153.558 403.666 157.345 403.633 161.131 403.564C161.173 404.371 161.226 404.397 160.956 405.116Z" fill="#636566"/>
<path d="M503.526 382.879C517.254 381.088 527.377 382.064 537.424 392.658C532.26 396.609 527.165 398.268 520.68 398.8C519.402 398.784 518.169 398.778 516.892 398.714C516.091 398.341 515.379 398.007 514.551 397.681C511.099 397.643 491.281 391.728 499.21 389.891C497.642 389.933 497.072 390.41 496.545 388.967C496.418 387.649 496.309 387.593 496.8 386.307L496.662 385.224C498.912 384.329 501.231 383.646 503.526 382.879ZM523.007 391.785C525.282 393.134 526.007 392.007 523.17 391.258L523.007 391.785ZM518.575 383.513C518.01 383.249 518.008 383.294 517.355 383.33C517.864 383.668 517.861 383.582 518.575 383.513ZM516.2 393.609C518.578 392.436 519.241 392.792 516.903 391.474C514.127 392.44 513.025 392.224 516.2 393.609Z" fill="#A8ACAC"/>
<path d="M523.17 391.258C526.007 392.007 525.282 393.134 523.007 391.785L523.17 391.258Z" fill="#A8ACAC" fill-opacity="0.517647"/>
<path d="M503.526 382.879C517.254 381.088 527.377 382.064 537.424 392.658C532.26 396.609 527.165 398.268 520.68 398.8C520.976 398.451 521.301 398.099 521.608 397.757C525.72 397.328 531.782 395.486 535.132 393.14L535.894 392.619C530.498 387.117 526.139 384.848 518.575 383.513C518.01 383.249 518.008 383.294 517.355 383.33C509.36 382.914 504.241 383.299 496.8 386.307L496.662 385.224C498.912 384.329 501.231 383.646 503.526 382.879Z" fill="#0C0B0B"/>
<path d="M496.545 388.966C502.478 388.142 518.32 387.742 523.17 391.257L523.007 391.784C512.686 389.355 510.509 389.078 499.21 389.89C497.642 389.932 497.072 390.409 496.545 388.966Z" fill="#0C0B0B"/>
<path d="M514.552 397.681C516.759 397.669 519.451 397.652 521.609 397.757C521.302 398.099 520.977 398.451 520.681 398.8C519.403 398.784 518.17 398.778 516.893 398.714C516.092 398.341 515.38 398.007 514.552 397.681Z" fill="#636566"/>
<path d="M516.903 391.474C519.241 392.792 518.578 392.436 516.2 393.609C513.025 392.224 514.127 392.44 516.903 391.474Z" fill="#A8ACAC" fill-opacity="0.92549"/>
<path d="M147.808 325.416C153.673 328.098 158.863 330.047 165.431 330.216C168.413 330.636 169.979 330.646 172.924 330.654C171.883 339.216 170.195 347.762 168.898 356.29C167.25 367.134 165.611 377.837 163.489 388.614L163.151 388.974C159.943 386.11 156.123 379.039 150.987 376.17L150.655 375.579L150.827 374.256L149.837 373.485C150.419 373.079 150.452 372.973 151.151 372.82C163.107 370.202 169.52 357.788 164.805 346.232C166.982 346.238 167.386 347.601 168.248 346.033C170.664 340.376 167.517 339.823 170.302 334.456C173.598 328.105 155.194 338.736 155.493 331.704C155.592 329.386 151.845 328.468 150.042 328.05L149.601 328.038C148.334 327.041 147.995 327.024 147.808 325.416ZM165.041 370.25C164.723 365.907 164.831 366.407 162.027 368.754L161.675 369.043C160.973 369.387 159.927 370.316 159.799 370.957C159.468 372.607 154.962 373.417 155.645 374.764C156.8 377.045 158.516 376.627 159.986 375.833C163.279 374.052 163.788 373.437 165.041 370.25ZM162.409 381.811C162.77 381.507 162.93 381.027 162.825 380.568C162.72 380.109 162.367 379.747 161.91 379.63C161.453 379.514 160.97 379.662 160.657 380.015C160.221 380.508 160.239 381.255 160.699 381.727C161.159 382.198 161.905 382.235 162.409 381.811Z" fill="#FDFDFD"/>
<path d="M150.655 375.579L150.826 374.256C156.711 379.323 159.184 382.442 163.489 388.614L163.151 388.974C159.943 386.11 156.123 379.039 150.987 376.17L150.655 375.579Z" fill="#818584"/>
<path d="M165.041 370.25C163.788 373.437 163.279 374.052 159.986 375.833C158.516 376.627 156.799 377.045 155.644 374.764C154.962 373.417 159.467 372.607 159.798 370.957C159.927 370.316 160.972 369.387 161.675 369.043C163.026 370.845 162.855 370.4 165.041 370.25Z" fill="url(#paint0_linear_117_11983)"/>
<path d="M161.675 369.043L162.027 368.754C164.831 366.407 164.723 365.907 165.041 370.25C162.855 370.4 163.026 370.845 161.675 369.043Z" fill="#FDFDFD" fill-opacity="0.741176"/>
<path d="M160.658 380.015C160.97 379.662 161.454 379.514 161.91 379.63C162.367 379.747 162.72 380.109 162.825 380.568C162.93 381.027 162.77 381.507 162.409 381.811C161.905 382.235 161.159 382.198 160.699 381.727C160.239 381.255 160.221 380.508 160.658 380.015Z" fill="#FDFDFD" fill-opacity="0.882353"/>
<path d="M243.627 232.879C247.345 232.686 251.071 232.693 254.789 232.9C285.012 234.418 306.925 245.086 327.093 267.148L327.066 482.795C321.056 468.602 309.754 454.662 298.089 444.665C289.38 437.67 279.483 432.3 268.87 428.814C241.895 419.988 213.495 423.969 188.52 436.749C195.188 408.933 201.505 381.034 207.469 353.059C215.529 316.078 223.967 273.108 224.699 235.361C230.949 234.13 237.271 233.301 243.627 232.879Z" fill="#E4DCD1"/>
<path d="M440.453 259.924C446.543 261.586 452.543 263.563 458.428 265.848C459.813 284.665 464.845 311.746 467.813 330.91L487.448 454.609C476.088 450.324 466.037 446.798 453.889 444.801C420.748 439.539 386.802 445.669 357.595 462.191C350.256 466.301 343.869 470.838 337.045 475.721C335.318 477.086 333.565 478.599 331.867 480.015C332.952 477.843 334.095 475.699 335.294 473.587C347.848 451.573 370.016 433.328 394.642 427.041C423.613 419.646 449.143 424.822 474.594 439.384C464.362 389.363 451.066 339.811 443.858 289.163C442.514 279.726 440.864 269.419 440.453 259.924Z" fill="#E4DCD1"/>
<path d="M204.83 266.356L221.799 260.488C218.322 294.757 211.76 327.024 204.524 360.552C198.782 387.023 192.692 413.417 186.255 439.727C187.709 438.838 189.183 437.981 190.675 437.157C212.291 425.458 242.506 422.183 266.053 429.441C291.208 437.194 310.046 453.89 322.542 476.81C322.194 477.309 321.871 477.718 321.498 478.194C314.226 471.055 304.873 465.395 295.837 460.608C265.839 444.717 231.128 441.499 198.084 447.542C189.946 449.03 181.588 451.814 173.683 454.324C176.466 436.766 180.189 418.728 183.229 401.041C190.997 356.239 198.198 311.341 204.83 266.356Z" fill="#E4DCD1"/>
<path d="M322.541 476.81C323.366 478.113 324.52 480.467 325.294 481.897C323.974 480.663 322.726 479.526 321.497 478.194C321.87 477.718 322.193 477.309 322.541 476.81Z" fill="#BABCBD"/>
<path d="M140.561 238.891C133.433 236.262 124.52 233.82 121.762 225.511C118.961 217.075 116.438 192.919 127.197 189.35C136.202 186.363 152.093 203.247 153.959 211.818C156.644 223.448 150.007 230.438 144.973 239.218C143.057 239.923 143.335 241.513 143.43 243.183C145.205 242.104 146.269 241.269 147.908 239.996C149.483 239.88 150.445 239.789 152.046 239.817C156.8 237.699 160.579 235.921 165.918 235.642C177.227 235.052 185.73 240.44 184.418 252.655C184.388 252.844 184.358 253.034 184.328 253.223C182.309 269.512 169.763 269.13 166.198 277.219C166.348 279.518 174.735 290.071 176.713 292.936C177.645 294.267 179.049 295.381 178.252 296.939C178.253 299.057 176.809 309.864 175.254 311.085C175.802 311.329 175.618 311.188 175.871 311.409V311.453C175.642 311.646 174.934 311.685 174.654 311.742C176.895 313.054 173.829 326.471 173.235 329.035L172.445 330.012C169.794 329.955 168.083 329.852 165.432 330.216C158.863 330.047 153.673 328.098 147.808 325.416C147.038 324.682 146.974 324.663 145.97 324.365C142.619 322.025 142.367 321.369 139.87 318.509C135.512 304.777 148.356 297.544 159.578 294.661C163.132 293.748 170.121 293.653 172.844 291.58L172.884 290.478C170.972 286.332 163.669 276.871 159.784 274.271C152.161 284.176 141.524 288.487 129.222 285.341C122.185 283.541 114.499 280.343 112.314 272.701C111.15 268.48 111.78 263.966 114.055 260.225C122.097 246.732 140.625 246.328 142.015 243.638C141.865 241.577 141.393 240.834 140.561 238.891ZM157.257 264.998C157.43 264.772 158.009 264.464 157.745 264.132C157.405 264.084 157.222 264.237 156.881 264.395C156.784 264.505 156.36 264.88 156.404 265.139C156.415 265.199 156.447 265.234 156.504 265.253C156.723 265.329 157.129 265.062 157.257 264.998Z" fill="#0C0B0B"/>
<path d="M170.261 329.538C123.07 326.782 138.564 294.808 167.258 294.963C168.158 295.134 168.112 295.114 169.054 294.939C173.033 295.114 174.625 295.367 178.251 296.938C178.252 299.056 176.808 309.863 175.253 311.084C175.801 311.328 175.617 311.187 175.87 311.408V311.452C175.641 311.645 174.933 311.684 174.653 311.741C176.894 313.053 173.828 326.47 173.234 329.034L172.444 330.011C171.596 329.933 171.013 329.93 170.261 329.538Z" fill="#85918D"/>
<path d="M174.654 311.742C172.499 311.663 154.837 310.553 154.627 310.108C155.03 307.825 172.868 310.522 175.254 311.085C175.802 311.329 175.618 311.188 175.871 311.409V311.453C175.642 311.646 174.934 311.685 174.654 311.742Z" fill="#0C0B0B"/>
<path d="M170.262 329.539C171.561 329.15 171.862 329.149 173.235 329.035L172.445 330.012C171.597 329.934 171.014 329.931 170.262 329.539Z" fill="#636566"/>
<path d="M145.974 248.61C146.15 248.342 146.326 248.075 146.503 247.808C149.646 242.985 154.415 239.448 159.944 237.842C169.211 235.151 180.549 236.857 183.233 247.6L183.471 248.486C183.111 250.427 183.159 252.628 183.129 254.626C183.051 255.28 183.041 255.364 182.863 255.992C179.679 265.394 174.911 269.499 165.684 272.845C165.228 273.047 165.338 273.018 164.858 273.092C164.015 273.196 158.786 273.773 158.907 272.014C159.411 264.73 166.867 257.1 171.045 251.399C171.156 251.247 171.07 250.936 170.983 250.791C168.324 249.548 158.493 267.15 157.183 269.78C153.891 265.027 148.304 254.185 145.974 248.61ZM157.257 264.998C157.43 264.772 158.008 264.464 157.745 264.132C157.405 264.084 157.222 264.237 156.881 264.395C156.784 264.505 156.36 264.88 156.404 265.139C156.415 265.199 156.446 265.234 156.503 265.253C156.722 265.329 157.128 265.062 157.257 264.998Z" fill="#85918D"/>
<path d="M156.881 264.395C157.221 264.237 157.404 264.084 157.745 264.132C158.008 264.464 157.429 264.772 157.257 264.998C157.128 265.062 156.722 265.329 156.503 265.253C156.446 265.234 156.414 265.199 156.404 265.139C156.359 264.88 156.784 264.505 156.881 264.395Z" fill="#85918D" fill-opacity="0.941176"/>
<path d="M147.907 239.996C149.482 239.88 150.444 239.789 152.046 239.817C151.836 240.224 145.383 246.591 144.958 246.472C144.553 246.006 144.225 244.328 143.43 243.183C145.204 242.104 146.269 241.269 147.907 239.996Z" fill="#FDFDFD"/>
<path d="M183.471 248.486C184.015 250.535 183.308 250.687 184.417 252.655C184.387 252.844 184.357 253.034 184.327 253.223C183.485 253.787 183.541 253.725 183.129 254.626C183.159 252.628 183.111 250.427 183.471 248.486Z" fill="#4D5052"/>
<path d="M167.258 294.964C168.119 294.597 168.183 294.596 169.054 294.94C168.112 295.115 168.158 295.135 167.258 294.964Z" fill="#636566"/>
<path d="M134.568 247.765C136.489 247.649 143.062 247.2 144.145 249.132C147.855 255.752 150.865 263.073 155.116 269.45L156.19 271.059C148.079 267.081 138.23 264.042 129.117 264.71C128.441 264.76 129.14 265.652 130.371 265.756C139.309 266.511 148.304 268.226 156.274 272.524L158.023 273.461C155.671 278.593 150.372 282.197 144.901 284.118C136.401 287.779 115.368 282.337 113.132 272.168C110.32 259.38 124.459 250.13 134.568 247.765Z" fill="#85918D"/>
<path d="M127.965 189.922C129.53 189.501 129.927 189.539 131.534 189.985C151.325 198.905 163.444 222.188 142.024 237.361C140.676 232.795 139.732 228.853 138.764 224.163L138.238 221.664C137.76 219.426 137.081 215.34 135.889 213.359C135.842 213.28 135.603 213.221 135.532 213.266C134.987 213.661 135.174 214.643 135.298 215.179C136.186 219.03 137.202 222.843 137.956 226.723C138.656 230.324 139.638 233.85 140.516 237.41C127.862 233.597 121.489 229.893 120.903 215.674C120.526 206.54 118.619 194.875 127.965 189.922Z" fill="#85918D"/>
<path d="M127.965 189.922C129.53 189.501 129.927 189.539 131.534 189.985C130.18 190.026 129.315 190.023 127.965 189.922Z" fill="#4D5052"/>
<path d="M135.058 336.853L135.207 337.526C135.833 340.2 135.431 341.258 133.86 343.322C132.404 345.045 129.932 348.431 134.416 346.63C137.201 339.613 137.394 344.191 143.332 340.931C148.741 337.961 151.145 338.222 157.221 337.919C159.36 339.435 162.702 341.336 163.157 343.963C163.517 344.862 164.079 345.587 164.805 346.232C169.52 357.788 163.106 370.202 151.15 372.82C150.451 372.973 150.419 373.079 149.837 373.485C148.69 374.339 148.878 372.857 148.455 373.334C145.152 377.062 143.395 380.445 138.588 382.533C138.458 382.558 138.329 382.584 138.2 382.61C138.221 382.825 138.243 383.04 138.265 383.255C137.402 383.73 137.185 383.81 136.238 384.152C129.553 386.971 121.737 386.151 115.161 383.386C111.839 381.855 111.68 381.766 108.957 378.993C105.662 375.637 107.092 365.138 110.309 362.608C113.129 356.73 118.537 354.342 124.14 352.009C126.007 352.192 127.141 351.702 128.649 351.804C132.209 352.046 130.44 350.897 130.322 347.506C130.046 346.921 129.987 346.78 129.642 346.251C130.423 345.119 130.902 345.02 131.862 343.734C133.219 341.429 134.055 339.327 135.058 336.853Z" fill="#636566"/>
<path d="M110.309 362.608C118.677 355.632 118.553 352.852 131.413 352.653C136.038 360.65 138.917 363.794 144.647 370.641C142.583 370.007 140.362 369.26 138.208 369.026C132.781 368.437 125.786 367.491 120.528 369.029C120.31 369.093 120.118 369.578 120.425 369.681C121.411 370.08 122.568 369.465 123.458 369.399C127.373 369.115 131.264 369.088 135.157 369.611C138.245 370.025 140.776 370.278 143.741 371.497C144.457 371.792 146.119 371.448 147.181 372.378C147.249 372.438 147.317 372.497 147.385 372.556C147.386 372.664 147.388 372.772 147.389 372.88C147.041 373.487 146.908 373.675 146.488 374.244L145.807 375.211C143.922 376.693 141.699 379.009 140.213 380.886C139.54 381.511 139.211 381.855 138.588 382.533C138.458 382.558 138.329 382.584 138.2 382.61C138.221 382.825 138.243 383.04 138.265 383.255C137.402 383.73 137.185 383.81 136.238 384.152C129.553 386.971 121.737 386.151 115.161 383.386C111.839 381.855 111.68 381.766 108.957 378.993C105.662 375.637 107.092 365.138 110.309 362.608Z" fill="#BABCBD"/>
<path d="M115.162 383.386C115.94 382.858 120.484 384.047 122.147 384.485C126.584 385.655 132.986 383.586 136.239 384.152C129.554 386.971 121.738 386.151 115.162 383.386Z" fill="#A8ACAC"/>
<path d="M135.058 336.853L135.207 337.526C135.833 340.2 135.432 341.258 133.861 343.322C132.404 345.045 129.933 348.431 134.416 346.63C137.202 339.613 137.395 344.191 143.332 340.931C148.741 337.961 151.145 338.222 157.222 337.919C159.361 339.435 162.702 341.336 163.157 343.963C158.171 340.438 154.624 339.737 148.409 340.808C140.568 342.158 136.612 346.147 132.667 352.657C131.819 350.965 131.074 349.243 130.323 347.506C130.047 346.921 129.987 346.78 129.643 346.251C130.424 345.119 130.903 345.02 131.862 343.734C133.219 341.429 134.055 339.327 135.058 336.853Z" fill="#FDFDFD"/>
<path d="M140.213 380.886C141.699 379.009 143.922 376.693 145.807 375.211C144.048 377.594 142.578 379.088 140.213 380.886Z" fill="#A8ACAC"/>
<path d="M148.526 341.746C151.473 341.572 156.116 341.27 158.667 342.316C170.67 347.241 165.46 366.599 155.126 370.673C151.304 372.18 150.03 371.666 146.02 371.59C148.597 364.478 149.211 363.376 152.787 357.101C152.968 356.879 155.97 353.576 154.807 353.447C152.176 355.403 148.872 361.817 147.598 364.919C146.922 366.608 146.183 368.272 145.383 369.907C140.078 364.617 137.12 360.21 133.236 353.831L133.471 353.364C136.283 347.89 135.97 350.323 139.138 346.31C140.47 344.6 142.322 343.37 144.415 342.805C145.94 342.383 146.975 342.087 148.526 341.746Z" fill="#BABCBD"/>
<path d="M515.07 361.394C503.562 353.709 496.863 336.618 503.332 323.818C505.127 322.479 506.666 322.361 508.459 324.012C515.813 330.784 519.156 338.644 520.284 348.459C522.263 349.09 522.566 348.648 524.5 348.848C523.913 350.623 522.142 352.527 520.959 354.392L521.814 354.74C524.383 352.294 526.449 348.372 528.523 346.552L528.667 347.143C529.133 349.263 530.305 349.465 532.026 350.706C539.693 348.902 547.628 347.707 555.394 349.633C559.173 350.57 565.15 351.256 566.383 355.412C565.265 358.166 559.62 360.462 556.855 361.622C552.156 363.644 547.166 364.905 542.07 365.36C540.187 365.61 536.535 365.789 534.684 365.35C527.773 364.953 522.843 363.731 516.111 362.169C512 367.051 507.015 372.724 503.275 377.773C503.278 379.974 503.235 380.729 503.527 382.879C501.232 383.646 498.913 384.329 496.663 385.224L496.827 384.546L496.136 384.252C496.43 383.545 496.502 383.483 496.91 382.834C501.672 378.115 510.312 367.021 515.07 361.394Z" fill="#0C0B0B"/>
<path d="M551.302 349.841C551.769 349.861 551.708 349.853 552.153 350.001C558.179 351.061 560.723 352.032 565.894 355.029C558.978 360.877 551.012 363.426 542.088 364.245L542.069 365.36C540.186 365.61 536.534 365.789 534.683 365.35C534.081 364.919 533.598 364.525 532.941 364.193C528.635 363.944 522.965 362.823 518.953 361.341C523.774 360.378 527.999 359.656 532.906 359.259C539.048 358.762 545.196 357.898 551.34 357.413C551.953 357.364 554.048 357.27 554.122 356.422C553.117 355.609 521.892 359.594 518.117 359.985C529.548 352.006 537.064 349.026 551.302 349.841Z" fill="#A8ACAC"/>
<path d="M532.941 364.193C534.581 364.134 540.603 364.087 542.088 364.245L542.069 365.36C540.186 365.61 536.534 365.789 534.683 365.35C534.081 364.919 533.598 364.525 532.941 364.193Z" fill="#636566"/>
<path d="M521.813 354.74C524.382 352.294 526.448 348.372 528.522 346.552L528.666 347.143C529.132 349.263 530.304 349.465 532.025 350.706C531.956 350.745 521.08 356.105 521.4 356.021C521.295 355.715 521.717 354.953 521.813 354.74Z" fill="#FDFDFD"/>
<path d="M496.826 384.545C499.165 382.301 501.009 379.993 503.274 377.772C503.277 379.973 503.234 380.728 503.526 382.878C501.231 383.645 498.912 384.328 496.662 385.223L496.826 384.545Z" fill="#E4DCD1"/>
<path d="M520.958 354.392C518.639 356.698 520.127 349.479 520.283 348.459C522.262 349.09 522.565 348.648 524.499 348.848C523.912 350.623 522.141 352.527 520.958 354.392Z" fill="#E4DCD1"/>
<path d="M515.676 360.445C508.482 355.046 505.134 351.026 502.744 341.671C501.622 336.165 501.502 329.735 504.302 324.702C505.205 323.079 507.404 325.172 508.272 325.873C508.624 326.091 508.535 326.02 508.839 326.331C514.035 330.724 516.956 336.044 518.323 342.637C518.472 343.105 518.455 343 518.483 343.479C518.837 346.869 519.814 355.195 517.097 358.366C517.058 358.411 516.833 358.432 516.788 358.391C514.193 356.011 511.112 335.58 507.903 335.451L507.846 335.529C507.919 336.475 510.146 341.531 510.542 343.246C511.687 348.205 513.761 353.236 515.071 358.178C515.264 358.936 515.466 359.692 515.676 360.445Z" fill="#A8ACAC"/>
<path d="M129.985 348.589C126.596 347.409 123.959 346.802 120.777 345.354C109.503 340.127 108.086 334.34 105.855 322.923C100.287 294.423 123.315 306.646 134.223 318.667C135.679 320.272 135.7 320.434 137.267 321.784C136.976 323.102 136.982 322.67 137.237 323.914C138.339 329.29 136.469 331.305 135.752 334.67L135.058 336.853C134.055 339.327 133.22 341.429 131.862 343.734C130.903 345.02 130.424 345.119 129.643 346.251C129.987 346.78 130.047 346.921 130.323 347.506C130.44 350.897 132.21 352.046 128.649 351.804C127.142 351.702 126.008 352.192 124.141 352.009C126.075 350.791 128.022 349.77 129.985 348.589Z" fill="#BABCBD"/>
<path d="M128.966 346.244C127.502 344.777 120.036 325.602 120.371 324.393L120.441 324.38C121.239 325.027 127.725 342.253 129.422 345.21L128.966 346.244Z" fill="#4D5052"/>
<path d="M129.422 345.21C130.468 343.529 130.017 343.189 131.862 343.734C130.903 345.02 130.424 345.119 129.643 346.251L128.967 346.244L129.422 345.21Z" fill="#85918D"/>
<path d="M532.603 338.709C527.67 320.97 532.671 301.492 551.162 294.424C556.306 312.635 548.815 328.18 534.274 339.442C532.496 340.819 529.883 344.636 528.522 346.552C526.448 348.372 524.382 352.294 521.813 354.74L520.958 354.392C522.141 352.527 523.912 350.623 524.499 348.848C526.678 346.76 530.395 341.46 532.603 338.709ZM537.159 318.871C537.493 317.214 538.086 316.263 536.862 315.075C536.404 316.921 535.66 317.673 537.159 318.871Z" fill="#0C0B0B"/>
<path d="M533.683 337.19L533.432 336.433C527.448 318.95 535.229 304.682 550.28 295.488C551.62 301.957 551.755 301.935 551.491 308.781C551.631 309.524 551.696 309.499 551.333 310.093C550.139 319.972 544.954 329.827 536.888 335.801L535.191 337.046C538.624 327.945 541.936 318.665 544.942 309.424C545.032 309.148 544.43 308.75 544.368 308.901C540.578 318.097 537.644 327.964 533.683 337.19ZM537.16 318.871C537.494 317.214 538.087 316.263 536.863 315.075C536.405 316.921 535.661 317.673 537.16 318.871Z" fill="#A8ACAC"/>
<path d="M551.332 310.093C551.277 309.357 551.205 309.366 551.49 308.781C551.63 309.524 551.695 309.499 551.332 310.093Z" fill="#4D5052"/>
<path d="M536.862 315.075C538.086 316.263 537.493 317.214 537.159 318.871C535.66 317.673 536.404 316.921 536.862 315.075Z" fill="#A8ACAC" fill-opacity="0.619608"/>
<path d="M137.267 321.784C137.89 322.183 138.51 322.588 139.126 322.997L139.044 326.736C140.566 331.169 144.986 328.672 145.743 329.602C147.894 332.241 149.98 332.752 151.885 329.448C151.18 328.83 150.806 328.575 150.042 328.05C151.844 328.468 155.592 329.386 155.493 331.704C155.194 338.736 173.598 328.105 170.302 334.456C167.517 339.823 170.664 340.376 168.248 346.033C167.386 347.601 166.982 346.238 164.805 346.232C164.079 345.587 163.517 344.862 163.157 343.963C162.702 341.336 159.36 339.435 157.221 337.919C151.145 338.222 148.741 337.961 143.332 340.931C137.394 344.191 137.201 339.613 134.416 346.63C134.251 345.221 134.218 344.666 133.86 343.322C135.431 341.258 135.833 340.2 135.207 337.526L135.058 336.853L135.752 334.67C135.988 337.486 135.345 343.845 139.296 339.58C139.492 338.075 136.45 334.331 136.293 334.304C135.984 334.418 136.181 334.327 135.752 334.67C136.468 331.305 138.339 329.29 137.237 323.914C136.982 322.67 136.975 323.102 137.267 321.784Z" fill="url(#paint1_linear_117_11983)"/>
<path d="M138.588 382.533C143.395 380.445 145.152 377.062 148.456 373.334C148.879 372.857 148.69 374.339 149.837 373.485L150.827 374.256L150.655 375.579C151.4 381.978 147.291 377.743 148.06 381.936C148.49 384.278 151.496 382.315 152.866 381.171L153.482 380.628C155.532 383.888 158.92 386.052 154.442 386.647C152.552 386.898 150.411 388.854 148.331 389.529C148.639 384.713 146.36 387.415 144.91 386.392C139.572 382.627 150.01 384.519 145.675 379.273C144.752 378.155 143.145 381.908 142.973 382.021C141.573 382.941 140.579 382.392 138.634 383.14L138.266 383.255C138.244 383.04 138.222 382.825 138.2 382.61C138.329 382.584 138.459 382.558 138.588 382.533ZM148.85 379.107C150.372 377.354 151.149 376.07 149.03 374.373L148.545 374.822C146.661 376.468 147.482 377.626 148.85 379.107Z" fill="#FDFDFD" fill-opacity="0.623529"/>
<path d="M149.029 374.373C151.149 376.07 150.372 377.354 148.85 379.107C147.482 377.626 146.66 376.468 148.544 374.822L149.029 374.373Z" fill="#FDFDFD" fill-opacity="0.466667"/>
<path d="M145.97 324.365C146.974 324.663 147.038 324.682 147.808 325.416C147.996 327.024 148.334 327.041 149.602 328.038C147.393 328.507 145.86 331.443 151.886 329.448C149.981 332.752 147.894 332.241 145.744 329.602C144.986 328.672 140.567 331.169 139.045 326.736C141.194 326.902 145.558 327.648 145.97 324.365Z" fill="#FDFDFD" fill-opacity="0.662745"/>
<path d="M138.634 383.14C140.579 382.392 141.572 382.941 142.973 382.021C143.145 381.908 144.752 378.155 145.675 379.273C150.01 384.519 139.572 382.627 144.91 386.392C146.36 387.415 148.639 384.713 148.33 389.529C145.715 390.772 145.018 390.674 143.641 392.945L143.174 392.836C145.165 388.139 145.263 389.275 142.468 384.477C141.8 383.331 139.724 383.361 138.634 383.14Z" fill="#FDFDFD" fill-opacity="0.34902"/>
<path d="M139.87 318.509C142.367 321.369 142.619 322.025 145.97 324.365C145.558 327.648 141.194 326.902 139.045 326.736L139.127 322.997C139.127 322.997 139.705 319.105 139.87 318.509Z" fill="#FDFDFD" fill-opacity="0.152941"/>
<path d="M150.655 375.579L150.987 376.17L151.162 376.995C151.511 378.783 152.459 379.222 153.482 380.628L152.866 381.171C151.496 382.315 148.49 384.278 148.06 381.936C147.291 377.743 151.4 381.978 150.655 375.579Z" fill="#FDFDFD" fill-opacity="0.803922"/>
<path d="M135.752 334.67C136.181 334.327 135.984 334.418 136.293 334.304C136.45 334.331 139.492 338.075 139.296 339.58C135.345 343.845 135.988 337.486 135.752 334.67Z" fill="#FDFDFD" fill-opacity="0.596078"/>
<path d="M144.972 239.218C145.197 241.286 145.902 240.423 147.907 239.996C146.269 241.269 145.204 242.104 143.429 243.183C143.334 241.513 143.056 239.923 144.972 239.218Z" fill="#FDFDFD" fill-opacity="0.113725"/>
<path d="M149.601 328.038L150.042 328.05C150.806 328.575 151.18 328.83 151.885 329.448C145.859 331.443 147.392 328.507 149.601 328.038Z" fill="#FDFDFD" fill-opacity="0.647059"/>
<path d="M133.861 343.322C134.218 344.666 134.252 345.221 134.416 346.63C129.932 348.431 132.404 345.045 133.861 343.322Z" fill="#FDFDFD" fill-opacity="0.482353"/>
<defs>
<linearGradient id="paint0_linear_117_11983" x1="157.14" y1="372.679" x2="160.17" y2="373.663" gradientUnits="userSpaceOnUse">
<stop stop-color="white" stop-opacity="0.870588"/>
<stop offset="1" stop-color="white" stop-opacity="0.909804"/>
</linearGradient>
<linearGradient id="paint1_linear_117_11983" x1="144.034" y1="343.249" x2="166.578" y2="329.073" gradientUnits="userSpaceOnUse">
<stop stop-color="white" stop-opacity="0.764706"/>
<stop offset="1" stop-color="white" stop-opacity="0.85098"/>
</linearGradient>
</defs>
</svg>
