<svg width="671" height="685" viewBox="0 0 671 685" fill="none" xmlns="http://www.w3.org/2000/svg">
<path d="M441.531 192.366C443.752 189.017 452.252 176.094 452.602 173.041C455.537 147.452 463.108 135.156 486.399 121C485.469 134.487 483.78 145.488 476.467 157.203C471.959 164.426 462.29 172.943 453.923 174.775C451.371 179.055 448.892 183.378 446.486 187.742C445.383 194.422 442.566 194.56 449.201 194.147C465.346 187.178 479.342 182.986 496.961 189.047C486.61 200.588 472.159 207.627 456.691 208.664C448.676 209.195 442.778 207.88 434.981 207.169C430.568 215.469 423.17 228.418 419.691 236.762L419.953 237.533C420.821 240.512 422.657 238.773 425.7 239.002C443.503 230.173 451.189 228.578 470.291 233.46C462.992 244.236 447.885 252.039 435.567 255.379C433.987 257.233 438.793 263.584 438.877 265.866C438.954 267.974 438.931 272.615 440.54 273.068C451.109 276.043 456.57 279.053 451.94 291.019C450.97 295.598 450.145 300.514 449.078 305.003C448.61 306.888 448.05 308.749 447.398 310.579C446.762 312.373 448.086 312.636 447.44 314.267C445.176 313.519 444.464 317.601 443.27 319.848L442.999 320.369C442.942 320.693 442.785 320.769 442.516 320.942C441.5 323.504 439.348 325.907 439.707 328.343C438.155 329.595 438.388 329.27 436.665 329.8C435.896 329.278 435.296 328.569 434.426 328.504L432.863 327.1C430.637 325.603 431.014 325.153 431.05 322.672C431.446 320.488 431.26 320.645 432.289 318.769C432.143 314.846 431.464 312.258 431.555 307.855C428.424 308.845 425.083 310.412 421.949 311.148L420.012 311.703C419.336 311.89 418.658 312.024 417.975 312.181C412.354 313.512 412.519 311.818 413.815 319.025C414.895 325.032 413.438 328.868 412.962 334.33C412.526 336.052 411.767 337.61 411.338 339.194C411.935 340.353 411.915 340.472 412.238 341.826L412.427 343.048C416.343 343.211 417.924 341.196 419.922 342.556C420.588 342.545 423.457 340.24 423.961 339.771C424.244 339.401 424.195 339.474 424.6 339.154C425.543 338.401 426.509 337.678 427.499 336.987C426.939 335.593 427.242 335.733 425.973 335.072L425.962 335.019C429.542 332.065 427.832 332.459 431.859 330.362L434.98 331.497L435.366 331.578L436.393 331.917C433.01 334.286 416.395 345.261 415.493 348.247C415.48 348.29 415.49 348.337 415.488 348.382C415.137 348.148 414.878 347.887 414.479 347.866C412.34 349.049 409.17 351.624 407.086 353.099L406.279 353.675C405.186 354.431 404.101 355.198 403.024 355.977C405.933 355.513 408.719 354.966 411.652 354.726C413.352 354.359 417.404 355.077 416.069 351.968C418.697 355.095 422.075 354.472 426.056 355.227C436.069 357.126 447.148 362.458 453.285 370.77C438.099 378.982 413.634 376.231 403.354 361.623L402.882 361.232L399.447 359.116C396.325 361.848 392.984 364.894 389.791 367.496L389.347 366.752L390.857 364.994C391.597 364.505 393.28 363.159 392.603 362.441C391.584 361.361 394.031 359.773 394.238 359.948C396.308 361.703 395.077 360.816 396.598 359.927C398.599 358.757 399.137 358.695 397.874 356.283L397.359 356.346C396.915 355.275 396.51 354.193 396.197 353.077L395.919 352.165L395.346 351.439C395.071 350.209 394.849 349.289 394.652 348.029C393.382 342.633 394.462 340.555 389.241 338.833C387.025 342.084 385.553 343.588 383.404 347.373C382.601 348.526 382.034 349.837 381.357 351.094L381.146 351.46L380.931 352.23C380.058 353.951 379.62 355.047 378.888 356.812C378.303 357.735 377.923 358.742 377.655 359.801C377.285 360.809 376.847 362.229 376.427 363.158C376.129 364.053 375.932 364.832 375.694 365.742C371.513 371.605 367.338 372.213 360.564 373.212C360.376 373.397 348.705 399.425 347.713 401.792C346.256 404.416 345.178 407.434 344.177 410.263C344.025 410.997 344.137 410.943 344.576 411.697C340.824 416.589 336.185 433.69 334.043 440.341L332.685 439.578C331.789 439.786 331.692 439.812 330.792 439.836L329.326 439.319C328.136 439.969 327.726 439.806 326.279 439.683L325.43 440.18C324.309 437.982 324.637 433.479 323.808 431.338C314.536 407.395 301.837 384.248 284.824 364.876C281.366 360.939 278.378 357.158 274.069 354.238C266.711 372.587 252.383 382.262 231.81 380.424C221.739 379.524 217.212 370.144 219.393 360.777C221.835 350.294 227.639 343.52 236.587 337.707C237.276 335.072 237.113 334.831 238.471 332.427C230.255 329.642 226.478 326.26 216.942 324.33C215.616 332.865 214.213 340.117 208.416 346.925C200.954 355.691 179.05 362.022 170.229 352.96C162.419 344.938 166.086 328.17 171.115 319.444C173.349 315.568 179.783 312.08 180.228 307.709C180.36 305.69 177.217 303.946 175.688 302.912C155.811 313.5 143.662 307.098 129.033 290.949C116.488 277.099 129.646 268.761 143.911 268.779C153.351 268.79 164.97 267.432 171.21 277.083C175.054 282.766 178.078 295.379 176.812 301.662C185.524 308.224 182.959 303.234 187.069 295.16C199.326 271.081 218.075 270.853 227.012 297.743C227.05 300.988 227.667 303.489 227.744 306.779C227.491 308.736 226.863 310.591 226.917 312.5C226.149 313.143 220.808 320.925 219.22 322.752C221.156 323.4 223.116 324.003 225.036 324.653C232.239 323.829 235.01 331.045 236.81 323.99L236.406 323.316C234.135 319.598 231.548 315.226 229.834 311.278C229.221 309.533 228.972 308.635 228.611 306.87C228.502 302.642 227.709 302.708 229.363 297.982L229.621 297.209C233.748 288.969 244.367 289.157 252.149 290.411C252.947 283.457 253.225 282.506 256.644 276.437C252.307 275.631 248.314 275.347 243.946 274.228C237.121 272.481 221.914 266.415 218.27 260.272C223.048 256.381 246.463 258.525 252.2 261.987C256.649 262.519 255.413 261.733 255.538 257.878C253.02 253.819 250.154 249.347 247.984 245.137C231.357 243.096 213.831 234.671 205.509 219.424C205.386 219.1 204.924 217.928 205.739 217.916C217.222 217.743 227.46 222.573 236.201 229.648C236.688 229.977 236.927 230.163 237.415 230.548L237.75 231.375C240.045 233.401 242.65 236.417 244.785 238.718C243.437 234.922 242.378 231.474 240.373 227.918C239.369 225.886 238.904 224.631 237.639 222.671C235.849 217.302 233.121 210.955 231.126 205.185C212.136 200.868 199.731 191.148 192.81 172.564C206.573 175.195 212.608 180.115 222.691 189.283C225.741 186.435 224.148 183.435 224.642 179.441C212.997 169.043 212.426 140.143 219.344 126.862C227.604 135.464 231.399 148.667 230.87 160.184C230.189 174.986 226.193 176.506 229.363 192.533C230.814 188.751 230.337 189.625 232.623 186.631C241.669 174.784 239.808 168.939 255.365 163.271C255.592 178.409 250.749 190.989 239.165 201.107C238.517 201.64 238.058 202.015 237.357 202.493C236.028 203.671 235.036 204.144 235.413 206.037C236.166 209.808 235.639 212.331 236.418 216.011L239.266 216.405C241.146 217.603 240.194 222.521 240.203 224.858L240.625 225.28L240.876 225.995C242.164 229.341 243.546 232.943 245.052 236.19C245.288 237.25 245.948 238.906 246.376 239.964C246.226 235.054 246.095 230.892 246.275 225.97C246.652 222.012 246.596 220.508 247.234 216.735L247.858 215.17L248.247 213.583C249.567 210.878 250.885 207.585 252.189 204.737C252.509 204.148 252.698 203.847 252.934 203.237C255.631 199.889 257.541 197.452 260.912 194.724C264.221 209.214 262.017 222.698 255.63 235.903C254.23 238.218 252.226 240.761 251.59 243.115C251.39 245.708 250.187 244.567 251.708 248.202C252.302 249.357 254.555 253.645 255.427 254.397C257.521 257.606 259.638 260.964 261.919 264.026C262.97 262.98 263.561 262.13 264.601 261.108C264.36 256.211 263.377 241.355 266.1 237.577C266.76 237.394 267.119 237.085 267.686 237.534C273.907 242.447 277.569 254.829 276.594 262.476C277.631 262.869 278.672 263.253 279.716 263.626C284.665 258.103 287.367 256.443 294.55 254.919C291.356 250.657 286.891 246.978 283.265 242.496C273.29 230.163 265.319 201.008 285.716 194.356C292.974 191.988 299.312 194.944 305.592 198.565C306.843 196.455 307.917 194.828 309.993 193.432C313.232 191.251 317.232 190.514 321.037 191.395C326.031 192.507 329.118 195.383 331.716 199.588C340.913 190.005 351.273 189.663 358.275 201.585C377.793 189.708 384.786 200.896 379.856 220.156C378.021 227.325 375.522 232.595 372.367 239.175C374.1 239.604 374.912 239.506 376.667 239.637L377.405 239.565C386.685 238.613 388.6 240.216 395.05 246.752C397.227 245.285 398.079 244.416 399.956 242.639C398.763 240.172 397.715 237.637 396.82 235.047C391.304 219.459 394.577 206.963 401.45 192.605C407.996 202.556 410.684 212.338 412.553 224.12C413.21 228.263 412.97 232.589 414.07 236.619L414.883 236.909C416.15 233.999 416.236 232.12 419.602 232.312C423.297 226.674 429.846 213.748 433.515 207.296C417.52 191.807 413.016 170.052 423.949 150.192C435.671 167.207 435.775 173.135 437.62 193.712C437.186 195.092 437.125 199.806 437.003 201.645C438.49 198.484 439.983 195.488 441.531 192.366ZM328.814 429.176C327.967 415.828 330.026 400.555 330.78 387.137C331.647 371.71 334.283 356.841 337.074 341.647C336.661 340.559 336.153 338.989 335.305 338.195L334.754 337.644C332.49 339.334 330.499 341.951 328.539 344.051C322.4 350.632 316.478 354.96 307.703 357.218C315.396 384.051 320.144 403.715 325.675 430.941C326.718 430.336 327.767 429.775 328.814 429.176ZM337.236 350.122C332.659 374.217 329.113 408.334 331.088 432.76C332.414 433.503 331.647 431.963 333.991 434.04C338.097 421.041 343.836 406.593 349.317 394.101C352.449 386.965 356.348 380.205 359.238 372.954C345.149 368.953 344 362.533 340.313 349.624C339.292 349.819 338.266 349.985 337.236 350.122ZM351.981 261.659C350.141 262.583 348.859 263.662 346.927 264.494C347.248 265.902 347.365 267.073 347.624 268.487C348.299 270.469 348.734 272.29 349.25 274.294C349.947 276.997 348.275 282.728 352.436 282.589C353.539 282.576 354.335 282.567 355.444 282.641C356.017 280.904 361.801 267.532 362.643 265.848C362.962 265.223 363.065 264.964 363.331 264.289C366.829 258.582 365.341 258.17 366.603 252.007L367.058 249.809C365.816 250.257 365.075 250.526 363.794 250.826C360.037 255.298 356.393 258.071 351.981 261.659ZM356.745 264.413C357.391 264.284 358.039 264.169 358.69 264.069C358.382 265.541 357.944 268.823 356.595 269.481C355.315 270.105 357.258 267.499 354.219 266.641C355.803 265.524 355.437 266.265 356.745 264.413ZM356.723 289.374C356.443 294.674 358.098 292.138 361.289 290.114C362.646 289.676 364.058 288.696 365.343 287.951L365.976 287.577L366.503 287.277C367.993 286.784 369.646 286.727 368.667 285.077C367.265 282.712 365.975 278.856 365.412 276.128C364.202 275.619 360.954 274.908 360.67 274.369C359.568 276.601 356.564 283.633 355.913 285.868C356.677 287.303 356.545 287.67 356.723 289.374ZM352.661 294.086C351.774 297.045 350.432 300.098 349.408 303.037C348.612 304.922 347.814 306.407 348.23 308.305C350.925 304.059 353.179 301.81 355.362 298.577C354.146 295.202 356.538 295.527 352.661 294.086ZM322.588 424.126C322.274 422.053 321.957 419.974 321.634 417.905C321.281 416.187 320.865 414.515 320.502 412.799C317.909 395.143 310.577 375.181 306.437 357.674C300.9 358.153 296.145 358.628 290.548 358.067C288.435 357.855 284.001 356.788 282.563 357.398C281.476 360.436 286.361 364.211 288.475 366.716C291.606 370.417 294.581 374.248 297.39 378.199C305.836 390.129 311.002 400.625 317.914 413.415C318.548 415.209 319.281 416.967 320.11 418.679C320.569 419.895 321.981 422.836 322.588 424.126ZM456.007 167.651C460.498 159.771 465.782 151.958 470.867 144.45C471.399 143.664 477.78 134.092 478.7 136.651C478.733 136.465 471.124 146.422 470.392 147.5C464.547 156.112 459.229 164.696 454.345 173.886C456.758 172.692 459.693 171.356 461.973 169.946C477.904 160.095 484.294 141.383 484.8 123.532C469.904 132.094 459.779 143.674 455.896 160.554C455.559 161.966 455.263 163.387 455.009 164.816C454.915 165.42 454.242 169.174 454.664 169.579C455.314 169.525 455.802 168.111 456.007 167.651ZM461.028 200.625C460.509 200.601 458.501 200.552 458.592 201.449C459.333 201.903 464.017 201.247 465.895 201.255C466.424 201.297 467.959 201.292 468.168 200.62C467.874 199.915 461.927 200.581 461.028 200.625ZM440.386 304.108L438.989 304.951C437.019 306.141 438.818 306.296 440.008 307.179C440.316 306.138 440.302 305.196 440.386 304.108ZM419.766 362.912C419.046 362.662 418.984 362.68 418.201 362.615C417.938 363.793 417.21 364.194 417.19 364.791C417.588 365.509 419.03 365.513 419.621 365.156L419.592 365.158L419.789 364.68C419.553 363.71 419.462 363.954 419.766 362.912Z" fill="#0C0B0B"/>
<path d="M347.623 268.487C349.776 267.13 349.041 267.823 351.043 267.569C352.972 267.324 352.255 264.616 355.788 264.464L356.744 264.413C355.436 266.265 355.802 265.524 354.218 266.641L353.817 267.445C350.758 272.694 356.14 269.758 355.613 273.694C355.602 273.772 355.772 275.193 355.783 275.296C355.107 279.017 355.047 280.022 352.435 282.589C348.274 282.728 349.946 276.997 349.249 274.294C348.733 272.29 348.298 270.469 347.623 268.487Z" fill="#FDFDFD" fill-opacity="0.227451"/>
<path d="M355.784 275.296C356.087 274.102 356.302 272.359 357.448 271.439C361.511 268.178 356.374 264.176 362.643 265.848C361.801 267.532 356.017 280.904 355.444 282.641C354.335 282.567 353.539 282.576 352.436 282.589C355.048 280.022 355.108 279.017 355.784 275.296Z" fill="#FDFDFD" fill-opacity="0.823529"/>
<path d="M351.981 261.659C354.849 262.772 360.402 262.915 362.737 264.223C361.138 264.248 360.288 264.227 358.69 264.069C358.039 264.169 357.391 264.284 356.745 264.413L355.789 264.464C352.256 264.616 352.973 267.324 351.044 267.569C349.042 267.823 349.777 267.13 347.624 268.487C347.365 267.073 347.248 265.902 346.927 264.494C348.859 263.662 350.141 262.583 351.981 261.659Z" fill="#FDFDFD" fill-opacity="0.121569"/>
<path d="M358.689 264.069C360.287 264.227 361.137 264.248 362.736 264.223L363.33 264.289C363.064 264.964 362.961 265.223 362.642 265.848C356.373 264.176 361.51 268.178 357.447 271.439C356.301 272.359 356.086 274.102 355.783 275.296C355.772 275.193 355.602 273.772 355.613 273.694C356.14 269.758 350.758 272.694 353.817 267.445L354.218 266.641C357.257 267.499 355.314 270.105 356.594 269.481C357.943 268.823 358.381 265.541 358.689 264.069Z" fill="#FDFDFD" fill-opacity="0.580392"/>
<path d="M418.2 362.615C418.983 362.68 419.045 362.662 419.765 362.912C419.461 363.954 419.552 363.71 419.788 364.68L419.591 365.158L419.62 365.156C419.029 365.513 417.587 365.509 417.189 364.791C417.209 364.194 417.937 363.793 418.2 362.615Z" fill="#BABCBD" fill-opacity="0.913725"/>
<path d="M419.765 362.911C423.967 364.098 428.265 365.027 432.267 366.879C432.477 366.976 433.684 367.746 434.002 367.454C433.709 366.066 423.3 363.217 421.548 362.76L417.548 361.753L415.547 361.256C413.194 360.653 409.83 359.786 407.508 359.127C406.168 358.747 403.693 358.661 403.06 358.009C402.536 357.469 404.078 356.191 404.764 356.502C406.499 355.936 408.358 355.734 410.002 355.445C414.059 354.653 419.086 355.038 423.263 355.205C425.388 355.504 427.224 355.965 429.292 356.498C435.786 358.17 441.691 361.351 446.988 365.437C447.722 365.912 452.47 369.873 451.508 370.94C450.711 371.824 444.237 373.728 442.772 374.011C440.287 374.49 438.863 374.71 436.315 374.542C434.055 374.393 431.973 374.787 429.784 374.378C428.363 373.872 427.055 374.109 425.55 373.83C420.467 372.884 416.781 371.041 412.305 368.668C409.894 367.389 410.367 366.283 409.512 366.069C406.927 365.425 405.636 363.242 403.353 361.622L402.881 361.231C402.52 360.699 401.673 359.656 401.571 358.996C401.864 358.613 402.247 358.626 402.705 358.601L402.652 358.582C406.743 359.074 413.957 361.461 418.2 362.614C417.937 363.792 417.209 364.193 417.189 364.79C417.587 365.508 419.029 365.512 419.62 365.155L419.591 365.157L419.788 364.679C419.552 363.709 419.461 363.953 419.765 362.911Z" fill="#BABCBD"/>
<path d="M205.508 219.424C205.385 219.1 204.923 217.928 205.738 217.916C217.221 217.743 227.459 222.573 236.2 229.648C236.687 229.977 236.926 230.163 237.414 230.548L237.749 231.375C237.751 231.878 237.747 232.38 237.737 232.882L238.102 233.357C238.384 233.73 238.779 234.324 239.222 234.61C241.561 236.12 244.316 240.03 246.092 242.108C242.878 240.101 219.954 224.883 218.297 224.751L218.06 225.016C218.058 224.994 244.127 242.334 246.19 243.704C228.802 241.351 217.315 233.908 206.842 219.852C206.324 219.656 206.048 219.574 205.508 219.424Z" fill="#85918D"/>
<path d="M205.508 219.424C205.385 219.1 204.923 217.928 205.738 217.916C217.221 217.743 227.459 222.573 236.2 229.648C236.687 229.977 236.926 230.163 237.414 230.548L237.749 231.375C237.751 231.878 237.747 232.38 237.737 232.882C237.428 232.78 234.909 230.261 234.249 229.724C226.224 223.187 217.627 219.141 206.842 219.852C206.324 219.656 206.048 219.574 205.508 219.424Z" fill="#4D5052"/>
<path d="M451.94 291.019C450.97 295.598 450.145 300.514 449.078 305.003C448.61 306.888 448.05 308.749 447.398 310.579C446.762 312.373 448.086 312.636 447.44 314.267C445.176 313.519 444.464 317.601 443.27 319.848L442.999 320.369C442.942 320.693 442.785 320.769 442.516 320.942C441.5 323.504 439.348 325.907 439.707 328.343C438.155 329.595 438.388 329.27 436.665 329.8C435.896 329.278 435.296 328.569 434.426 328.504L432.863 327.1C430.637 325.603 431.014 325.153 431.05 322.672C431.446 320.488 431.26 320.645 432.289 318.769C432.143 314.846 431.464 312.258 431.555 307.855L432.172 307.431C434.96 305.76 437.596 304.434 440.576 302.58C441.078 302.35 441.372 302.223 441.898 302.048C442.691 300.96 447.443 296.865 449.222 294.98C450.211 293.589 450.984 292.483 451.94 291.019ZM440.008 307.179C440.316 306.138 440.302 305.196 440.386 304.108L438.989 304.951C437.019 306.141 438.818 306.296 440.008 307.179Z" fill="#BABCBD"/>
<path d="M440.385 304.107C440.301 305.195 440.315 306.137 440.007 307.178C438.817 306.295 437.018 306.14 438.988 304.95L440.385 304.107Z" fill="#BABCBD" fill-opacity="0.92549"/>
<path d="M451.939 291.019C450.969 295.598 450.144 300.514 449.077 305.003C448.609 306.888 448.049 308.749 447.397 310.579C446.761 312.373 448.085 312.636 447.439 314.267C445.175 313.519 444.463 317.601 443.269 319.848L442.998 320.369C442.941 320.693 442.784 320.769 442.515 320.942C440.642 322.919 438.845 326.846 436.983 329.399C438.679 320.324 440.592 311.162 441.897 302.048C442.69 300.96 447.442 296.865 449.221 294.98C450.21 293.589 450.983 292.483 451.939 291.019Z" fill="#BABCBD"/>
<path d="M451.94 291.019C450.97 295.598 450.145 300.514 449.078 305.003C448.61 306.888 448.05 308.749 447.398 310.579C446.762 312.373 448.086 312.636 447.44 314.267C445.176 313.519 444.463 317.601 443.269 319.848L442.998 320.369C442.929 315.737 451.455 301.564 449.221 294.98C450.21 293.589 450.984 292.483 451.94 291.019Z" fill="#818584"/>
<path d="M441.898 302.048C440.593 311.162 438.68 320.324 436.984 329.399C438.846 326.846 440.643 322.919 442.516 320.942C441.5 323.504 439.348 325.907 439.707 328.343C438.155 329.595 438.388 329.27 436.665 329.8C435.896 329.278 435.296 328.569 434.426 328.504L432.863 327.1C430.637 325.603 431.014 325.153 431.05 322.672C431.446 320.488 431.26 320.645 432.289 318.769C432.143 314.846 431.464 312.258 431.555 307.855L432.172 307.431C432.73 310.684 432.63 313.993 433.127 317.29C433.74 321.365 435.108 325.261 436.371 329.174C436.628 326.932 436.714 325.239 437.145 323.003L438.582 315.934C439.206 312.959 439.642 310.183 440.008 307.179C440.316 306.138 440.302 305.196 440.386 304.108C440.516 303.43 440.536 303.276 440.576 302.58C441.078 302.35 441.372 302.223 441.898 302.048Z" fill="#636566"/>
<path d="M432.289 318.769C433.008 321.493 435.254 326.983 434.426 328.504L432.863 327.1C430.637 325.603 431.014 325.153 431.05 322.672C431.446 320.488 431.26 320.645 432.289 318.769Z" fill="#FDFDFD"/>
<path d="M405.151 322.002C406.195 320.278 408.26 317.423 408.429 315.288C408.36 313.019 411.579 312.709 412.191 314.52C412.868 316.522 413.207 319.413 413.4 321.546C413.712 324.998 413.125 328.516 412.765 331.976C412.475 332.315 412.532 332.381 412.478 332.856C411.792 335.381 411.652 336.441 410.644 339.002L409.633 341.502C409.283 342.375 408.825 343.779 408.279 344.525C407.46 345.644 407.26 346.929 406.533 348.05C405.035 350.355 403.51 353.892 401.027 355.242C399.968 354.924 400.645 351.323 400.788 350.566C401.092 349.314 401.325 348.051 401.619 346.788C402.042 344.966 402.395 342.868 402.853 341.072L403.293 339.313L403.852 337.062C404.206 335.648 404.564 334.25 404.817 332.813L405.293 330.809C405.812 328.56 406.547 325.825 405.792 323.585C405.573 323.06 405.359 322.532 405.151 322.002Z" fill="#BABCBD"/>
<path d="M405.151 322.002C405.359 322.532 405.573 323.06 405.792 323.585C404.72 327.45 404.052 333.277 403.025 337.606L402.55 339.615C401.739 343.142 401.012 346.499 400.405 350.045C400.115 351.737 399.71 355.504 399.304 356.776C398.79 356.853 398.384 356.488 397.873 356.283L397.358 356.346C396.914 355.275 396.509 354.193 396.196 353.077L395.918 352.165L395.345 351.439C395.07 350.209 394.848 349.289 394.651 348.029C393.381 342.633 394.461 340.555 389.24 338.833C390.504 336.68 392.217 335.23 393.969 333.575C395.827 330.501 402.14 325.305 405.151 322.002Z" fill="#BABCBD"/>
<path d="M393.969 333.575C394.153 338.43 396.231 348.614 395.918 352.165L395.345 351.439C395.07 350.209 394.848 349.289 394.651 348.029C393.381 342.633 394.461 340.555 389.24 338.833C390.504 336.68 392.217 335.23 393.969 333.575Z" fill="#6A6D6D"/>
<path d="M345.211 266.858C345.414 265.862 345.438 265.422 346.316 264.889L346.927 264.494C347.248 265.902 347.365 267.073 347.624 268.487C348.299 270.469 348.734 272.29 349.25 274.294C349.947 276.997 348.275 282.728 352.436 282.589C353.539 282.576 354.335 282.567 355.444 282.641C353.15 287.749 351.637 293.172 349.538 298.162C348.872 296.755 348.879 295.816 348.663 294.243C348.989 286.234 348.88 274.091 345.211 266.858Z" fill="#FDFDFD"/>
<path d="M402.436 355.693L406.927 348.331C408.435 345.883 410.174 341.897 411.338 339.194C411.935 340.353 411.915 340.472 412.238 341.826L412.427 343.048C416.343 343.211 417.924 341.196 419.922 342.556C415.897 346.631 407.277 352.359 402.436 355.693Z" fill="#FDFDFD"/>
<path d="M236.809 323.99C239.84 327.529 242.37 330.605 245.551 334.222C241.92 332.611 227.393 326.432 225.035 324.653C232.238 323.829 235.009 331.045 236.809 323.99Z" fill="#FDFDFD"/>
<path d="M224.641 179.441C226.56 181.555 226.932 184.279 227.365 187.036C227.846 190.084 228.39 193.121 228.997 196.146C227.539 194.794 223.838 190.939 222.69 189.283C225.74 186.435 224.147 183.435 224.641 179.441Z" fill="#FDFDFD"/>
<path d="M414.635 248.589C415.491 245.834 417.661 238.715 419.401 236.632C419.498 236.676 419.594 236.719 419.691 236.762L419.953 237.533C420.821 240.512 422.657 238.773 425.7 239.002C421.016 243.002 419.491 243.876 414.635 248.589Z" fill="#FDFDFD"/>
<path d="M341.023 325.296C341.036 328.906 338.927 335.214 337.866 338.887C337.598 339.977 337.062 340.711 337.074 341.647C336.661 340.559 336.153 338.989 335.305 338.195L334.754 337.644C334.519 337.604 334.284 337.564 334.048 337.524C334.048 337.678 340.258 326.662 340.657 326.01L341.023 325.296Z" fill="#E4DCD1"/>
<path d="M446.486 187.742C445.383 194.422 442.566 194.56 449.201 194.147C448.07 195.224 443.239 198.649 441.512 200.015L440.048 198.591C441.575 195.788 444.583 189.996 446.486 187.742Z" fill="#FDFDFD"/>
<path d="M414.882 236.909C416.149 233.999 416.235 232.12 419.601 232.312C418.266 236.33 415.421 242.021 413.705 246.182C413.617 244.464 413.056 238.506 413.887 237.322C414.612 237.234 414.337 237.946 414.882 236.909Z" fill="#E4DCD1"/>
<path d="M325.675 430.941C326.718 430.336 327.767 429.775 328.814 429.176C329.25 432.589 329.206 435.88 329.326 439.319C328.136 439.969 327.726 439.806 326.279 439.683C326.356 435.976 325.937 434.524 325.675 430.941Z" fill="#FDFDFD"/>
<path d="M279.716 263.626C278.258 266.265 277.155 269.131 277.209 272.3C277.267 274.803 276.809 275.229 274.578 273.656C274.493 273.596 276.452 263.283 276.594 262.476C277.631 262.869 278.672 263.253 279.716 263.626Z" fill="#E4DCD1"/>
<path d="M255.537 257.878C257.398 259.881 261.378 265.545 263.142 267.941C260.169 266.32 254.819 263.771 252.199 261.987C256.648 262.519 255.412 261.733 255.537 257.878Z" fill="#FDFDFD"/>
<path d="M431.858 330.362L434.979 331.497C432.737 333.487 429.771 335.098 427.498 336.987C426.938 335.593 427.241 335.733 425.972 335.072L425.961 335.019C429.541 332.065 427.831 332.459 431.858 330.362Z" fill="#FDFDFD"/>
<path d="M363.793 250.826C364.3 250.126 372.761 238.839 372.366 239.175C374.099 239.604 374.911 239.506 376.666 239.637C371.446 242.561 369.519 244.136 367.057 249.809C365.815 250.257 365.074 250.526 363.793 250.826Z" fill="#FDFDFD"/>
<path d="M236.417 216.011L239.265 216.405C241.145 217.603 240.193 222.521 240.202 224.858C238.692 221.857 237.445 219.221 236.417 216.011Z" fill="#FDFDFD"/>
<path d="M331.087 432.76C332.413 433.503 331.646 431.963 333.99 434.04C333.624 435.947 333.087 437.68 332.684 439.578C331.788 439.786 331.691 439.812 330.791 439.836C330.784 437.718 330.608 434.731 331.087 432.76Z" fill="#FDFDFD"/>
<path d="M339.548 339.115C339.775 341.98 340.216 346.918 340.312 349.624C339.291 349.819 338.265 349.985 337.235 350.122C337.785 346.402 338.675 342.768 339.548 339.115Z" fill="#FDFDFD"/>
<path d="M238.47 332.427C240.258 333.119 241.579 333.856 243.258 334.721C241.084 335.827 238.813 336.713 236.586 337.707C237.275 335.072 237.112 334.831 238.47 332.427Z" fill="#FDFDFD"/>
<path d="M264.6 261.107C265.388 263.661 265.726 266.789 266.096 269.456C264.613 267.615 263.158 266.03 261.918 264.025C262.969 262.979 263.56 262.129 264.6 261.107Z" fill="#FDFDFD"/>
<path d="M348.662 294.243C348.878 295.816 348.871 296.755 349.537 298.162C349.058 299.976 348.905 300.155 347.875 301.818C348.244 299.177 348.278 296.861 348.662 294.243Z" fill="#E4DCD1"/>
<path d="M441.511 200.015C440.979 200.457 439.049 202.341 438.58 202.416C437.978 202.045 439.859 198.957 440.047 198.591L441.511 200.015Z" fill="#E4DCD1"/>
<path d="M412.479 332.856C412.533 332.381 412.476 332.315 412.766 331.976C412.868 332.453 412.819 332.482 412.479 332.856Z" fill="#85918D"/>
<path d="M279.407 278.125C278.926 274.234 278.397 272.123 279.719 268.279C281.332 263.613 284.825 259.837 289.35 257.865C292.914 256.324 296.459 256.359 300.03 257.842C307.505 260.946 309.028 267.295 311.851 274.208C319.874 265.245 334.915 252.897 344.181 267.834C350.064 285.872 347.125 307.499 339.434 324.568C328.81 345.412 315.865 359.111 291.196 356.695C271.886 354.805 254.294 342.225 241.847 327.81C236.526 321.648 229.349 310.296 230.073 301.744C231.776 289.333 245.142 291.114 254.076 292.62C252.72 274.561 264.874 270.68 279.407 278.125Z" fill="#E4DCD1"/>
<path d="M314.315 192.897C323.096 191.826 327.71 194.874 331.334 202.649C340.008 192.635 351.892 189.181 357.162 204.136C361.881 201.072 368.921 196.977 374.747 198.879C376.564 199.486 378.039 200.833 378.807 202.589C382.964 211.908 374.945 231.951 369.713 239.921C364.178 248.352 353.93 260.112 344.508 264.232L343.742 263.888C334.941 256.703 326.69 259.533 318.151 265.253C311.39 263.617 303.854 258.763 297.92 254.899C286.589 247.52 277.873 233.847 275.301 220.662C274.034 214.163 274.077 206.983 278.051 201.373C280.383 198.081 283.677 195.902 287.688 195.306C294.71 194.264 300.51 197.319 306.023 201.23C308.397 196.324 309.391 194.987 314.315 192.897Z" fill="#E4DCD1"/>
<path d="M378.459 240.895C386.245 240.283 389.681 242.543 393.54 248.985C405.962 243.693 413.225 244.708 418.19 258.131C422.27 256.99 425.174 256.827 429.336 256.794C438.221 261.287 438.205 265.935 435.744 274.693C442.643 274.729 454.031 276.15 451.908 286.254C450.325 293.793 442.463 299.31 436.278 303.23C427.038 308.494 419.935 311.129 409.261 312.112C408.384 297.199 403.708 300.534 392.697 295.066C389.42 293.439 388.435 284.088 377.396 292.232C366.812 280.436 359.986 247.881 378.459 240.895Z" fill="#D7BAA6"/>
<path d="M373.547 290.117C374.904 291.762 376.294 293.52 377.724 295.087C388.606 284.118 390.696 297.149 391.264 297.213C398.391 298.014 408.757 301.231 407.44 311.638C405.993 323.07 387.367 335.164 381.961 346.387C375.798 359.184 374.88 374.056 357.772 370.765C342.578 368.216 341.687 348.155 341.713 336.182C342.095 325.241 344.288 318.815 349.39 309.32C355.978 299.44 361.537 293.031 373.547 290.117Z" fill="#D7BAA6"/>
<path d="M372.689 299.777C374.435 300.629 376.581 303.467 377.936 305.046C381.439 309.129 390.589 306.404 392.365 308.12C391.936 308.555 391.462 309.158 390.768 309.238C383.478 310.077 374.364 308.357 372.689 299.777Z" fill="#0C0B0B"/>
<path d="M184.676 309.563C194.28 315.817 199.077 318.542 210.117 322.63C200.196 325.528 189.228 329.114 182.064 337.091C181.785 337.402 181.761 338.204 182.284 338.128C183.421 337.744 185.081 335.919 186.166 335.008C192.412 329.771 200.17 326.643 208.004 324.655C208.988 324.405 209.765 324.401 210.649 323.927C212.442 323.878 215.355 323.16 215.183 325.76C214.288 340.198 206.149 352.4 191.283 354.921C185.551 355.893 177.703 357.694 172.823 353.524C161.013 343.431 168.484 323.414 177.071 314.28C179.806 311.9 180.827 311.264 184.132 309.807L184.676 309.563Z" fill="#85918D"/>
<path d="M246.057 335.882C247.595 335.781 257.707 344.459 260.473 346.357C255.567 348.75 236.285 356.466 235.131 361.489L235.803 361.662C242.082 355.853 253.796 350.415 261.73 347.439C265.284 349.221 269.261 351.539 272.783 353.479C271.685 356.972 271.284 357.898 269.528 361.113C264.189 370.526 255.318 376.703 244.703 378.628C239.046 379.774 230.143 380.424 225.419 376.623C213.135 366.74 223.992 347.104 234.586 340.346C238.915 337.585 241.174 336.662 246.057 335.882Z" fill="#85918D"/>
<path d="M160.72 307.165C147.282 307.945 131.296 294.795 125.511 283.073C123.433 276.528 129.475 272.367 134.528 271.375C160.895 266.2 176.098 271.324 175.856 301.292C168.203 296.174 160.226 290.105 152.02 286.12C151.929 286.076 151.654 286.273 151.625 286.378C151.41 287.153 152.547 287.733 153.067 288.028C160.277 292.383 167.626 297.062 174.538 301.888C169.773 304.767 167.123 306.067 161.576 307C161.234 307.208 161.144 307.154 160.72 307.165Z" fill="#85918D"/>
<path d="M185.039 307.703C185.986 297.36 188.868 290.988 196.557 283.863C216.665 265.231 234.695 302.099 222.43 316.935C220.115 319.735 218.697 321.68 215.121 322.787L214.804 322.888C210.248 320.151 210.235 301.413 208.839 296.291C208.772 296.045 208.13 296.135 208.108 296.334C207.25 304.246 209.978 312.775 211.189 320.452C211 320.834 210.573 321.036 210.238 321.266C202.771 317.061 192.375 314.611 185.177 307.831L185.039 307.703Z" fill="#85918D"/>
<path d="M438.056 206.521C449.662 189.02 475.941 184.536 495.126 189.797C482.395 200.758 475.057 205.211 458.112 207.544C457.198 208.235 447.25 208.018 446.403 207.517C443.635 207.183 440.825 206.819 438.056 206.521ZM465.895 201.255C466.424 201.297 467.959 201.292 468.168 200.62C467.874 199.915 461.927 200.581 461.028 200.625C460.509 200.601 458.501 200.552 458.592 201.449C459.333 201.903 464.017 201.247 465.895 201.255Z" fill="#85918D"/>
<path d="M446.402 207.517C447.828 207.213 456.67 207.196 458.111 207.544C457.197 208.235 447.249 208.018 446.402 207.517Z" fill="#636566"/>
<path d="M478.055 193.431C480.836 193.629 478.04 195.401 476.27 195.176C475.82 195.118 471.557 196.007 470.771 196.217L468.767 196.681C463.288 198.008 457.85 199.498 452.46 201.15C451.204 201.029 451.33 200.598 451.479 200.544C459.563 197.618 469.588 194.94 478.055 193.431Z" fill="#0C0B0B"/>
<path d="M461.028 200.625C461.927 200.581 467.874 199.915 468.168 200.62C467.959 201.292 466.424 201.297 465.895 201.255C464.017 201.247 459.333 201.903 458.592 201.449C458.501 200.552 460.509 200.601 461.028 200.625Z" fill="#85918D" fill-opacity="0.92549"/>
<path d="M458.412 231.955C458.914 231.903 458.867 231.895 459.322 232.1C462.55 232.588 465.14 233.395 468.269 234.294C457.044 246.887 443.376 254.203 426.349 255.259C423.946 255.409 421.554 255.654 419.16 255.905L418.088 252.855C419.704 249.819 451.781 239.748 454.893 237.503L454.544 236.64L453.648 236.391C449.034 238.725 421.48 250.304 417.766 250.039C416.77 249.968 417.155 250.1 416.45 249.271C417.175 247.715 418.199 246.669 419.513 245.541C431.44 235.302 443.047 231.298 458.412 231.955Z" fill="#85918D"/>
<path d="M455.009 164.816C455.263 163.387 455.559 161.966 455.896 160.554C459.779 143.674 469.904 132.094 484.8 123.532C484.294 141.383 477.904 160.095 461.973 169.946C459.693 171.356 456.758 172.692 454.345 173.886C459.229 164.696 464.547 156.112 470.392 147.5C471.124 146.422 478.733 136.465 478.7 136.651C477.78 134.092 471.399 143.664 470.867 144.45C465.782 151.958 460.498 159.771 456.007 167.651C455.802 168.111 455.314 169.525 454.664 169.579C454.242 169.174 454.915 165.42 455.009 164.816ZM471.394 155.075L471.481 154.856C471.68 154.371 473.236 151.158 472.417 150.777C471.443 151.27 470.922 152.441 470.707 153.455C470.42 153.965 468.202 157.202 468.469 157.485C469.283 158.347 471.191 155.403 471.394 155.075ZM465.223 162.111L465.893 161.41C466.889 160.391 467.708 159.779 466.6 158.672C465.531 159.826 463.8 160.937 465.223 162.111ZM469.601 141.879C470.795 140.814 471.827 140.413 470.543 139.166C469.816 139.907 468.222 141.098 469.601 141.879ZM462.263 152.876C462.331 152.777 462.521 152.58 462.524 152.418C462.345 152.445 462.167 152.472 461.989 152.499C461.721 152.809 461.786 152.7 461.714 152.86L461.729 152.896C461.849 152.937 462.093 152.89 462.263 152.876Z" fill="#85918D"/>
<path d="M455.008 164.816C455.35 165.99 455.511 166.536 456.006 167.651C455.801 168.111 455.313 169.525 454.663 169.579C454.241 169.174 454.914 165.42 455.008 164.816Z" fill="#818584"/>
<path d="M470.707 153.455L471.394 155.075C471.191 155.403 469.283 158.347 468.469 157.485C468.202 157.202 470.42 153.965 470.707 153.455Z" fill="#818584" fill-opacity="0.580392"/>
<path d="M470.706 153.455C470.921 152.441 471.442 151.27 472.416 150.777C473.235 151.158 471.679 154.371 471.48 154.856L471.393 155.075L470.706 153.455Z" fill="#818584" fill-opacity="0.768627"/>
<path d="M466.6 158.672C467.708 159.779 466.889 160.391 465.893 161.41L465.223 162.111C463.8 160.937 465.531 159.826 466.6 158.672Z" fill="#818584" fill-opacity="0.47451"/>
<path d="M470.542 139.166C471.826 140.413 470.794 140.814 469.6 141.879C468.221 141.098 469.815 139.907 470.542 139.166Z" fill="#85918D" fill-opacity="0.811765"/>
<path d="M461.989 152.499C462.167 152.472 462.345 152.445 462.524 152.418C462.521 152.58 462.331 152.777 462.263 152.876C462.093 152.89 461.849 152.937 461.729 152.896L461.714 152.86C461.786 152.7 461.721 152.809 461.989 152.499Z" fill="#85918D" fill-opacity="0.431373"/>
<path d="M401.482 195.145C403.163 196.82 404.446 199.892 405.406 202.101C411.65 216.451 412.202 230.993 412.416 246.337C411.262 245.779 409.998 245.21 408.895 244.58C408.395 242.605 407.803 240.505 407.378 238.539L406.939 236.52C405.389 229.38 404.184 221.612 404.087 214.293C404.065 212.611 404.287 213.054 403.815 211.12C403.789 211.139 402.978 211.717 402.874 211.88C402 214.081 402.972 218.987 403.198 221.298C403.785 227.297 404.926 233.17 406.135 239.052C406.276 239.742 407.512 244.106 406.99 244.188C404.826 244.528 402.452 244.407 401.429 242.124C391.845 226.597 394.226 210.857 401.482 195.145Z" fill="#85918D"/>
<path d="M423.51 152.937C424.982 153.515 427.859 157.678 428.666 159.138C435.743 171.939 437.752 191.577 434.389 205.559C431.872 194.827 429.397 178.876 426.483 169.087L425.271 168.994L433.262 205.582C418.173 190.502 415.695 172.48 423.51 152.937Z" fill="#85918D"/>
<path d="M219.547 128.646C225.185 135.017 226.039 139.114 228.459 147.004C228.695 147.329 228.633 147.389 228.633 147.823C228.852 149.062 229.05 150.302 229.229 151.547C230.422 159.318 229.81 168.998 226.816 176.307L225.999 175.915C225.329 171.748 222.648 143.485 221.994 142.324L221.59 142.32C220.894 143.093 222.949 160.814 223.192 163.046L224.916 178.677C220.754 172.011 218.242 167.813 216.57 159.819C216.474 159.433 216.461 159.327 216.43 158.93L216.149 156.884C215.591 155.957 215.631 156.068 215.89 154.987C215.707 150.97 215.674 147.611 215.875 143.611C215.646 142.652 215.447 142.296 216.051 141.495C216.394 137.066 217.926 132.763 219.547 128.646Z" fill="#85918D"/>
<path d="M216.051 141.496C216.254 142.536 216.321 142.668 215.875 143.612C215.646 142.653 215.447 142.297 216.051 141.496Z" fill="#636566"/>
<path d="M215.89 154.988C216.318 155.697 216.193 156.067 216.149 156.885C215.591 155.958 215.631 156.069 215.89 154.988Z" fill="#636566"/>
<path d="M235.973 259.422C236.92 259.269 236.866 259.151 237.6 259.64C243.055 260.034 247.739 261.286 252.761 263.53C254.63 264.364 266.253 270.133 266.178 272.024C265.458 272.702 252.636 267.563 250.263 266.933L249.284 266.682C248.371 266.439 247.419 266.165 246.501 265.943C245.01 265.579 243.515 265.23 242.017 264.898C239.836 264.438 236.551 263.558 234.489 263.23L234.132 263.714L233.546 263.51C234.459 264.267 236.331 264.689 237.503 264.903C246.966 266.63 254.923 269.477 263.871 272.731C256.642 275.186 255.156 275.947 246.997 273.966C236.943 271.727 227.554 267.162 219.583 260.638C222.086 260.239 224.017 259.972 226.522 259.751L228.772 259.532C231.572 259.248 233.108 259.281 235.973 259.422Z" fill="#85918D"/>
<path d="M235.974 259.422C236.921 259.269 236.867 259.151 237.601 259.64C236.682 259.781 236.677 259.912 235.974 259.422Z" fill="#636566"/>
<path d="M194.468 173.996L196.857 174.582C208.397 177.291 218.017 185.601 225.703 194.24C226.504 194.722 226.568 194.916 226.992 195.786C228.833 198.453 228.83 199.243 229.889 202.33C227.405 200.165 225.492 199.063 222.96 197.119L222.373 198.066C225.183 200.157 227.056 200.995 230.069 203.597C229.068 203.367 228.018 203.11 227.018 202.904C221.249 201.677 215.809 199.233 211.062 195.734C203.468 189.916 198.228 182.717 194.468 173.996Z" fill="#85918D"/>
<path d="M220.563 196.59L213.663 190.989C211.855 189.538 204.289 184.312 203.885 182.111C204.703 181.962 205.352 182.357 205.913 182.968C210.51 187.972 216.63 191.347 221.385 196.217L220.563 196.59Z" fill="#0C0B0B"/>
<path d="M221.385 196.217L222.96 197.119L222.373 198.066C221.79 197.368 221.772 197.136 221.385 196.217Z" fill="#0C0B0B"/>
<path d="M225.702 194.24C226.503 194.722 226.567 194.916 226.991 195.786C226.106 195.338 226.045 195.124 225.702 194.24Z" fill="#6A6D6D"/>
<path d="M232.908 203.746C237.747 194.545 242.751 185.412 247.642 176.24C248.168 175.253 249.565 173.891 248.786 172.807L248.317 172.835C246.085 174.451 234.792 199.564 233.07 200.54C230.218 197.635 235.033 186.717 236.393 183.794L236.737 183.041C241.387 173.045 244.575 168.516 254.754 164.74C254.449 167.872 254.062 171.383 253.622 174.498C253.583 174.968 253.604 174.89 253.415 175.32C249.948 187.648 244.474 197.33 232.908 203.746Z" fill="#85918D"/>
<path d="M259.635 197.21C261.093 198.753 260.667 202.779 260.825 204.83C261.798 217.52 258.884 230.959 250.546 240.842C247.092 244.936 248.689 238.079 249.222 236.544C250.564 232.682 251.673 228.506 252.651 224.533L253.15 222.535L253.651 220.536C254.06 218.763 254.517 216.956 254.909 215.185L255.015 214.69C255.233 213.486 256.463 209.408 255.895 208.698C254.723 209.144 252.074 222.779 251.667 224.531L251.181 226.53C250.113 230.782 249.356 233.459 247.856 237.607C246.273 223.086 248.89 207.789 259.635 197.21Z" fill="#85918D"/>
<path d="M267.114 238.502C275.536 246.377 276.719 259.993 273.814 270.554C274.579 271.568 271.254 274.949 271.04 272.685C270.68 268.878 270.682 259.266 270.389 255.42L270.248 252.046C270.066 246.892 267.972 251.578 269.238 256.801C270.018 260.023 269.423 269.835 268.975 273.145C265.924 264.757 263.941 247.948 266.81 239.468L267.114 238.502Z" fill="#85918D"/>
<path d="M365.591 264.176C366.572 274.362 367.742 279.694 372.538 288.913C364.761 290.63 361.051 293.016 355.361 298.577C354.145 295.202 356.537 295.527 352.66 294.086C353.637 291.973 354.263 289.463 355.25 287.299L355.912 285.868C356.676 287.303 356.544 287.67 356.722 289.374C356.442 294.674 358.097 292.138 361.288 290.114C362.645 289.676 364.057 288.696 365.342 287.951L365.975 287.577L366.502 287.277C367.992 286.784 369.645 286.727 368.666 285.077C367.264 282.712 365.974 278.856 365.411 276.128C364.201 275.619 360.953 274.908 360.669 274.369C361.982 270.94 363.832 267.407 365.591 264.176Z" fill="#FDFDFD"/>
<path d="M360.669 274.369C360.953 274.908 364.201 275.619 365.411 276.128C364.521 276.285 362.452 276.285 362.049 276.437C361.788 276.793 363.901 283.848 364.143 284.677C362.157 290.278 358.958 284.089 357.046 288.951L356.722 289.374C356.544 287.67 356.676 287.303 355.912 285.868C356.563 283.633 359.567 276.601 360.669 274.369Z" fill="url(#paint0_linear_117_11984)"/>
<path d="M364.144 284.677C363.902 283.848 361.789 276.793 362.05 276.437C362.453 276.285 364.522 276.285 365.412 276.128C365.975 278.856 367.265 282.712 368.667 285.077C369.646 286.727 367.993 286.784 366.503 287.277C364.83 286.527 364.679 286.526 364.144 284.677Z" fill="#FDFDFD" fill-opacity="0.176471"/>
<path d="M352.66 294.086C356.537 295.527 354.145 295.202 355.361 298.577C353.178 301.81 350.924 304.059 348.229 308.305C347.813 306.407 348.611 304.922 349.407 303.037C350.431 300.098 351.773 297.045 352.66 294.086Z" fill="#E4DCD1" fill-opacity="0.984314"/>
<path d="M309.579 264.188C311.289 264.798 313.031 265.315 314.796 265.736C315.268 265.847 316.421 265.986 316.657 266.547C316.56 266.958 315.493 267.885 315.178 268.195C311.18 272.2 311.785 270.201 309.579 264.188Z" fill="#E4DCD1"/>
<path d="M364.144 284.677C364.679 286.526 364.83 286.527 366.503 287.277L365.976 287.577L365.343 287.951C364.058 288.696 362.646 289.676 361.289 290.114C363.042 286.006 359.247 289.199 357.047 288.951C358.959 284.089 362.158 290.278 364.144 284.677Z" fill="#FDFDFD" fill-opacity="0.784314"/>
<path d="M357.046 288.951C359.246 289.199 363.041 286.006 361.288 290.114C358.097 292.138 356.442 294.674 356.722 289.374L357.046 288.951Z" fill="#FDFDFD" fill-opacity="0.67451"/>
<path d="M320.501 412.799C320.864 414.515 321.28 416.187 321.633 417.905L320.109 418.679C319.28 416.967 318.547 415.209 317.913 413.415C318.916 412.975 319.381 412.961 320.501 412.799Z" fill="#E4DCD1" fill-opacity="0.988235"/>
<path d="M321.633 417.905C321.956 419.974 322.273 422.053 322.587 424.126C321.98 422.836 320.568 419.895 320.109 418.679L321.633 417.905Z" fill="#FDFDFD" fill-opacity="0.466667"/>
<path d="M225.999 175.916L226.816 176.308C226.681 176.705 226.626 177.037 226.228 177.214C225.722 176.977 225.935 176.382 225.999 175.916Z" fill="#818584"/>
<path d="M334.042 440.341C335.749 440.777 337.548 441.341 339.286 441.363C342.952 437.63 345.398 432.366 348.68 428.735C361.316 414.639 377.458 401.976 397.185 401.564C403.351 401.435 413.123 403.729 416.841 408.208C443.302 440.084 404.972 472.551 372.031 469.425C355.6 467.866 352.867 467.289 339.719 459.241C339.395 458.283 339.101 457.468 338.729 456.528L337.536 456.639C333.151 463.2 360.718 485.222 365.867 488.602C384.229 500.655 417.667 508.418 439.575 504.84C434.426 508.14 426.328 512.727 422.476 516.872L436.073 530.798C395.334 523.249 365.766 507.587 341.703 472.804C340.035 470.394 336.203 462.769 334.175 461.85L333.263 462.769C332.238 462.812 332.292 462.759 331.31 463.005L331.018 463.693C330.241 461.656 330.98 461.14 329.614 458.854C327.676 459.244 327.187 458.966 326.143 460.136C324.956 459.232 325.623 459.486 324.039 459.466C321.59 461.465 319.127 467.604 317.161 470.78C315.275 473.806 313.234 476.733 311.044 479.547C289.43 507.853 260.193 523.716 225.492 530.109C224.763 530.237 221.605 531.035 221.203 530.492C221.229 529.883 222.543 528.57 222.904 528.15C226.615 524.615 230.498 520.395 234.078 516.669C228.193 512.496 223.056 509.87 217.271 505.261C236.354 505.941 249.575 505.56 268.433 499.8C288.442 493.687 313.067 475.271 322.677 456.57C318.82 458.005 314.211 461.361 310.487 463.385C286.735 476.297 248.85 468.779 235.791 444.124C231.874 436.716 231.115 428.04 233.687 420.064C235.85 413.421 240.438 407.501 246.821 404.511C272.565 392.451 308.964 421.101 319.013 442.906C321.669 441.504 322.489 441.051 325.43 440.18L326.279 439.683C327.726 439.806 328.136 439.969 329.326 439.319L330.792 439.836C331.692 439.812 331.789 439.786 332.685 439.578L334.042 440.341ZM298.896 461.694C307.943 460.807 311.247 459.357 318.989 454.346C317.489 450.445 316.789 448.727 316.127 444.544C300.38 427.832 279.719 415.694 256.135 417.499C248.537 418.331 242.557 419.565 235.44 422.375C243.329 445.718 274.996 462.93 298.896 461.694ZM339.055 454.616C350.512 462.028 357.27 462.764 370.993 461.19C391.942 455.641 413.375 443.571 422.518 422.928C411.462 418.13 401.683 417.074 389.761 417.932C373.656 420.487 364.17 425.08 351.484 435.665C347.943 438.619 343.289 442.738 340.432 446.37C340.058 448.863 339.654 452.242 339.055 454.616Z" fill="#492F1E"/>
<path d="M225.492 530.109C224.763 530.237 221.604 531.035 221.202 530.492C221.228 529.883 222.543 528.57 222.904 528.15C223.964 528.859 224.527 529.28 225.492 530.109Z" fill="#432E1D"/>
<path d="M486.533 251.127C490.085 260.451 490.475 267.323 489.09 277.343C488.701 280.154 487.736 284.177 487.914 286.823C487.561 292.15 485.911 291.258 492.157 291.233C493.041 293.65 490.653 293.407 488.699 295.185C487.105 296.635 484.601 297.597 482.859 299.06L482.296 299.523C484.659 298.848 485.98 297.969 488.076 296.582C490.086 295.252 489.293 296.088 489.878 297.229L489.993 298.693C492.051 299.966 497.134 299.519 500.206 299.693C512.355 300.379 527.15 307.504 535.229 316.603C518.988 323.07 502.963 321.68 488.118 312.492C483.783 309.809 480.647 306.478 476.7 303.726C469.284 308.975 459.969 315.739 452.194 320.377L451.864 320.61C452.888 325.656 450.133 321.794 449.16 326.095C454.156 325.311 457.989 325.767 462.798 325.711C470.944 326.538 482.323 330.109 488.725 335.18C490.849 336.485 493.308 337.696 494.221 339.982C493.513 341.417 493.747 340.956 491.745 341.711C489.496 343.82 484.455 344.689 481.528 345.334C470.783 347.704 452.541 343.407 444.35 336.058L439.732 332.657L437.556 331.305C437.168 331.509 436.78 331.713 436.392 331.917L435.365 331.578C435.843 330.955 436.227 330.457 436.664 329.8C438.387 329.27 438.154 329.595 439.706 328.343L440.266 328.212C441.369 326.726 456.6 317.738 448.003 318.645L447.238 318.647C450.204 317.25 449.492 317.514 452.669 317.955C459.804 314.591 468.634 307.936 474.831 302.936C469.752 289.837 468.24 275.397 476.412 263.1L476.616 262.987C478.703 258.055 482.38 254.378 486.533 251.127ZM495.607 307.546C494.996 307.194 495.008 307.206 494.332 306.989C494.168 307.706 493.993 308.438 493.857 309.157C494.138 309.452 494.28 309.637 494.672 309.717C495.839 309.253 494.289 308.581 495.607 307.546Z" fill="#636566"/>
<path d="M439.086 330.053C453.976 325.353 462.303 324.134 477.53 330.315C479.118 330.959 487.528 334.894 488.726 335.18C490.85 336.485 493.309 337.696 494.222 339.982C493.514 341.417 493.748 340.956 491.746 341.711C489.497 343.82 484.456 344.689 481.529 345.334C470.784 347.704 452.542 343.407 444.351 336.058L439.733 332.657L439.596 331.423C442.625 330.4 476.938 338.999 479.407 338.647C472.324 334.229 448.838 332.552 439.086 330.053Z" fill="#BABCBD"/>
<path d="M444.351 336.058C450.209 337.753 457.609 343.353 464.597 344.013C466.274 344.172 467.789 344.871 469.522 344.7C478.212 346.246 483.895 343.22 491.746 341.711C489.497 343.82 484.456 344.689 481.529 345.334C470.784 347.704 452.542 343.407 444.351 336.058Z" fill="#85918D"/>
<path d="M486.145 252.482C492.028 268.832 487.84 289.008 477.207 302.517L477.282 302.037C477.616 299.964 477.833 297.692 478.217 295.785L478.727 293.284C479.678 287.825 481.141 281.705 482.092 276.179C482.258 275.213 483.626 268.938 482.713 268.812C482.013 269.582 477.965 292.22 477.359 295.341L476.653 299.01C476.37 300.311 476.149 301.619 475.894 302.925C474.126 298.232 473.048 294.973 472.166 290.093C472.085 289.455 472.102 289.473 471.9 288.869C471.602 283.023 471.269 279.658 472.644 274.043C473.313 271.31 476.484 264.382 476.412 263.099L476.616 262.986C478.227 261.631 482.167 256.064 485.504 253.067L486.145 252.482Z" fill="#BABCBD"/>
<path d="M480.586 300.515C481.208 297.586 484.22 293.539 485.462 290.396L485.52 290.376C485.697 290.512 485.942 290.844 486.147 290.864C486.345 289.941 485.808 287.383 487.074 286.326C487.31 286.358 487.777 286.729 487.914 286.823C487.561 292.15 485.911 291.258 492.157 291.233C493.041 293.65 490.653 293.407 488.699 295.185C487.105 296.635 484.601 297.597 482.859 299.06L482.296 299.523C481.434 299.963 481.326 300 480.586 300.515Z" fill="#FDFDFD"/>
<path d="M482.296 299.523C484.659 298.848 485.98 297.969 488.076 296.582C490.086 295.252 489.293 296.088 489.878 297.229L489.993 298.693C490.009 299.238 490.089 299.485 490.254 300.005C489.593 300.627 482.732 301.819 480.586 300.515C481.326 300 481.434 299.963 482.296 299.523Z" fill="#E4DCD1"/>
<path d="M440.151 328.811C443.251 326.62 448.962 322.275 451.864 320.61C452.888 325.656 450.133 321.794 449.16 326.095C446.131 326.985 443.165 327.862 440.151 328.811Z" fill="#E4DCD1"/>
<path d="M439.706 328.343L440.266 328.212C440.283 330.111 438.951 330.481 437.556 331.305C437.168 331.509 436.78 331.713 436.392 331.917L435.365 331.578C435.843 330.955 436.227 330.457 436.664 329.8C438.387 329.27 438.154 329.595 439.706 328.343Z" fill="#0C0B0B"/>
<path d="M478.354 302.858C488.964 301.269 499.082 299.432 509.701 302.281C518.102 304.535 527.967 309.783 533.628 316.487C521.036 320.862 506.146 320.639 494.034 314.767C491.119 313.338 488.362 311.609 485.807 309.607C485.486 309.44 485.399 309.439 485.201 309.179C482.426 307.344 481.347 306.427 478.888 304.248C484.228 304.77 489.222 306.6 494.333 306.989C494.169 307.706 493.993 308.438 493.857 309.157C494.138 309.452 494.28 309.637 494.672 309.717C495.839 309.253 494.289 308.581 495.607 307.546C500.071 308.389 514.909 311.964 517.807 312.092C516.29 310.266 483.023 303.687 478.354 302.858Z" fill="#BABCBD"/>
<path d="M494.332 306.989C495.008 307.206 494.996 307.194 495.607 307.546C494.289 308.581 495.839 309.253 494.672 309.717C494.28 309.637 494.138 309.452 493.857 309.157C493.993 308.438 494.168 307.706 494.332 306.989Z" fill="#BABCBD" fill-opacity="0.929412"/>
<path d="M512.638 266.73C517.458 256.462 533.39 249.03 543.74 245.726L544.721 245.826C548.216 246.168 546.981 245.507 547.166 249.946C545.356 260.174 532.676 275.709 522.851 279.523C520.096 281.465 508.977 285.558 505.784 284.908C505.298 284.683 504.843 284.467 504.348 284.263C505.301 279.294 509.15 270.251 512.638 266.73ZM525.596 271.542L524.764 272.051C521.36 274.051 523.371 274.24 526.305 272.788C527.557 271.487 530.975 268.666 530.957 267.797C529.309 266.989 526.585 270.406 525.596 271.542ZM533.757 264.965C534.108 264.711 534.401 264.585 534.561 264.201L534.535 264.138C534.28 264.05 533.739 264.52 533.661 264.572C533.518 264.704 532.624 265.073 532.856 265.47C533.211 265.519 533.526 265.148 533.757 264.965Z" fill="#BABCBD"/>
<path d="M505.338 283.433C507.917 281.619 533.96 259.853 533.717 259.847C533.803 260.048 533.872 260.144 533.757 260.264C527.746 266.542 512.56 279.053 506.441 284.005C508.308 283.679 510.446 283.364 512.283 282.957L513.019 282.798C516.394 282.046 519.353 280.303 522.851 279.523C520.096 281.465 508.977 285.558 505.784 284.908C505.298 284.683 504.843 284.467 504.348 284.263C505.301 279.294 509.15 270.251 512.638 266.73C510.672 272.378 507.492 276.684 505.338 283.433Z" fill="#4D5052"/>
<path d="M525.596 271.542C526.585 270.406 529.309 266.989 530.957 267.797C530.975 268.666 527.557 271.487 526.305 272.788C526.042 272.265 525.942 271.988 525.596 271.542Z" fill="#BABCBD" fill-opacity="0.929412"/>
<path d="M525.596 271.542C525.942 271.988 526.042 272.265 526.305 272.788C523.371 274.24 521.36 274.051 524.764 272.051L525.596 271.542Z" fill="#BABCBD" fill-opacity="0.866667"/>
<path d="M533.661 264.572C533.739 264.52 534.28 264.05 534.535 264.138L534.561 264.201C534.401 264.585 534.108 264.711 533.757 264.965C533.526 265.148 533.211 265.519 532.856 265.47C532.624 265.073 533.518 264.704 533.661 264.572Z" fill="#BABCBD" fill-opacity="0.956863"/>
<path d="M326.143 460.135C327.187 458.965 327.675 459.244 329.613 458.854C329.212 461.517 329.555 468.176 329.762 471.011C329.358 486.372 329.023 548.796 323.841 559.758C323.126 557.3 325.199 542.244 325.626 538.245C327.367 521.948 327.95 505.93 328.38 489.573C328.974 486.68 329.019 485.398 328.401 482.513L328.274 476.44C328.415 473.684 328.263 470.799 328.08 468.044C328.019 467.117 328.624 462.204 327.757 461.953C327.259 462.165 327.348 462.704 327.326 463.18C327.067 464.337 326.932 465.173 326.772 466.344C326.472 469.5 325.869 472.297 325.628 475.605C325.493 475.928 325.471 475.906 325.442 476.174C322.902 491.93 306.623 552.856 297.746 565.605C300.146 556.162 307.366 538.715 310.61 528.339C318.606 502.763 322.392 486.007 326.143 460.135Z" fill="#0C0B0B" fill-opacity="0.988235"/>
<path d="M421.948 311.147C425.082 310.411 428.423 308.844 431.554 307.854C431.463 312.257 432.142 314.845 432.288 318.768C431.259 320.644 431.445 320.488 431.049 322.672L430.78 322.59C430.629 320.808 429.18 317.295 429.155 317.585C429.255 317.49 429.354 317.396 429.454 317.301C429.475 317.224 429.497 317.146 429.518 317.068C429.159 316.696 429.207 315.28 428.445 315.46C428.285 315.557 428.193 316.05 428.212 316.16C428.446 317.46 428.743 317.882 428.044 319.039C426.62 321.396 421.527 320.503 420.327 321.805C418.909 323.343 418.358 328.019 418.507 330.025C418.603 331.662 418.863 332.553 417.639 333.922C416.873 334.781 416.264 335.175 415.383 335.892C414.139 335.034 414.388 334.571 412.961 334.329C413.437 328.867 414.894 325.032 413.814 319.025C412.518 311.818 412.353 313.511 417.974 312.18C418.906 313.371 419.141 314.881 420.256 315.147C425.388 316.371 432.663 312.036 421.948 311.147ZM426.359 319.206L426.738 318.417C428.17 315.78 423.081 316.397 421.862 316.404C419.907 320.008 422.612 319.68 425.466 319.314L426.359 319.206Z" fill="#FDFDFD" fill-opacity="0.545098"/>
<path d="M421.862 316.404C423.081 316.397 428.17 315.781 426.738 318.418L426.359 319.207L425.466 319.315C422.612 319.681 419.907 320.008 421.862 316.404Z" fill="#FDFDFD" fill-opacity="0.619608"/>
<path d="M237.357 202.493C238.007 203.01 238.114 202.898 238.903 203.116C239.045 203.686 237.316 206.777 241.781 204.074C250.341 198.89 248.417 202.385 252.189 204.737C250.885 207.585 249.567 210.878 248.247 213.583L248.079 212.55C248.217 211.349 248.306 210.332 248.365 209.13C248.562 208.504 249.151 207.222 248.301 206.986C242.51 205.381 241.016 216.044 247.858 215.17L247.234 216.735C247.153 216.74 247.071 216.745 246.99 216.751C246.363 216.802 245.551 216.987 244.987 216.557C243.255 215.236 242.946 213.599 242.591 211.543C242.548 211.291 242.542 211.029 242.46 210.786C242.312 210.978 242.243 211.438 242.293 211.785C242.414 212.222 242.165 213.463 241.471 213.039C240.984 212.743 241.575 210.838 241.032 210.717C240.736 211.135 239.511 215.606 239.266 216.405L236.418 216.011C235.639 212.331 236.166 209.808 235.413 206.037C235.036 204.144 236.028 203.671 237.357 202.493Z" fill="url(#paint1_linear_117_11984)"/>
<path d="M331.018 463.693L331.311 463.005C332.293 462.759 332.238 462.812 333.263 462.769C331.488 471.307 347.759 520.032 350.144 531.297C351.226 536.405 355.807 546.136 355.39 551.242C353.823 548.7 351.063 539.139 349.995 535.7C345.895 522.715 342.185 509.611 338.868 496.404C337.137 489.584 333.832 474.921 331.611 468.879C331.554 467.278 331.217 465.339 331.018 463.693Z" fill="#0C0B0B"/>
<path d="M389.529 351.367C391.6 351.101 392.833 351.191 394.852 351.446L394.931 352.139C395.324 355.104 392.974 351.085 391.688 356.741C391.222 356.331 389.986 355.223 389.456 355.354C386.744 356.022 390.561 361.039 391.689 358.326C391.751 357.993 391.813 357.66 391.875 357.327C395.243 361.112 395.639 355.732 397.358 356.346L397.873 356.283C399.136 358.695 398.598 358.757 396.597 359.927C395.076 360.816 396.307 361.703 394.237 359.948C394.03 359.773 391.583 361.361 392.602 362.441C393.279 363.159 391.596 364.505 390.856 364.994C389.532 364.442 388.677 364.804 388.092 364.394C387.877 363.638 390.163 360.731 389.323 360.535C385.256 359.588 383.607 367.245 381.08 364.877C380.364 364.205 380.258 365.323 380.138 365.713C377.171 362.592 379.848 362.648 377.654 359.801C377.922 358.742 378.302 357.735 378.887 356.812L380.605 357.853C380.455 359.142 383.871 360.409 384.818 355.17C387.338 357.334 382.56 359.39 382.412 359.529L382.43 359.626C385.532 362.586 386.819 355.739 386.109 354.797C385.804 354.392 388.555 352.68 389.529 351.367Z" fill="#FDFDFD" fill-opacity="0.345098"/>
<path d="M430.78 322.591L431.049 322.672C431.013 325.153 430.636 325.603 432.862 327.1C430.877 327.734 430.785 328.587 429.651 329.163C429.44 330.153 431.249 330.247 431.858 330.362C427.831 332.459 429.541 332.065 425.961 335.019L425.972 335.072C427.241 335.733 426.938 335.593 427.498 336.987C426.508 337.678 425.542 338.401 424.599 339.154C424.264 334.581 425.575 335.091 420.193 335.084C420.443 334.849 421.131 334.258 420.957 334.139C419.91 333.42 419.747 331.733 421.3 330.937C424.235 329.434 423.142 327.053 424.876 324.892C425.918 323.595 428.812 323.419 430.78 322.591ZM425.788 331.321C427.967 330.205 429.474 327.718 427.324 326.083C424.453 328.189 424.209 328.183 425.788 331.321Z" fill="#FDFDFD" fill-opacity="0.560784"/>
<path d="M427.325 326.083C429.475 327.718 427.968 330.205 425.789 331.321C424.21 328.183 424.454 328.189 427.325 326.083Z" fill="#FDFDFD" fill-opacity="0.784314"/>
<path d="M415.384 335.893C416.265 335.176 416.874 334.782 417.64 333.923C418.864 332.554 418.604 331.663 418.508 330.026C418.359 328.02 418.91 323.344 420.328 321.806C421.528 320.504 426.621 321.397 428.045 319.04C428.744 317.883 428.447 317.461 428.213 316.161C428.194 316.051 428.286 315.557 428.446 315.46C429.208 315.28 429.16 316.697 429.519 317.069C429.498 317.147 429.476 317.225 429.455 317.302C429.355 317.397 429.256 317.491 429.156 317.586C429.181 317.296 430.63 320.809 430.781 322.591C428.813 323.419 425.919 323.595 424.877 324.892C423.143 327.053 424.236 329.434 421.301 330.937C419.748 331.733 419.911 333.42 420.958 334.139C421.132 334.258 420.444 334.849 420.194 335.084L419.751 335.359L419.504 335.385C417.444 335.581 417.66 336.117 415.384 335.893Z" fill="url(#paint2_linear_117_11984)"/>
<path d="M412.962 334.33C414.389 334.572 414.14 335.035 415.384 335.893C417.66 336.117 417.444 335.581 419.504 335.385L419.751 335.359C418.908 339.473 420.956 337.14 423.961 339.771C423.457 340.24 420.588 342.545 419.922 342.556C417.924 341.196 416.343 343.211 412.427 343.048C412.733 342.967 413.041 342.892 413.35 342.821C416.871 342.051 414.251 337.199 412.238 341.826C411.915 340.472 411.935 340.353 411.338 339.194C411.767 337.61 412.526 336.052 412.962 334.33Z" fill="#FDFDFD" fill-opacity="0.396078"/>
<path d="M239.266 216.405C239.511 215.606 240.736 211.135 241.032 210.717C241.575 210.838 240.984 212.743 241.471 213.039C242.165 213.463 242.414 212.222 242.293 211.785C242.243 211.438 242.312 210.978 242.46 210.786C242.542 211.029 242.548 211.291 242.591 211.543C242.946 213.599 243.255 215.236 244.987 216.557C245.551 216.987 246.363 216.802 246.99 216.751C247.071 216.745 247.153 216.74 247.234 216.735C246.596 220.508 246.652 222.012 246.275 225.97C245.707 226.02 245.138 226.07 244.57 226.12C243.316 226.04 242.086 226.09 240.876 225.995L240.625 225.28C241.358 225.228 242.072 225.167 242.804 225.174C244.645 225.191 245.314 221.137 243.862 220.147C243.299 219.828 241.581 218.616 241.085 218.677C240.766 219.057 240.696 224.302 240.625 225.28L240.203 224.858C240.194 222.521 241.146 217.603 239.266 216.405Z" fill="#FDFDFD" fill-opacity="0.188235"/>
<path d="M442.998 320.369L443.269 319.848C444.463 317.601 445.175 313.519 447.439 314.267C447.285 315.995 447.217 316.9 447.238 318.647L448.003 318.645C456.6 317.738 441.369 326.726 440.266 328.212L439.706 328.343C439.347 325.907 441.499 323.504 442.515 320.942C442.784 320.769 442.941 320.693 442.998 320.369Z" fill="#FDFDFD" fill-opacity="0.988235"/>
<path d="M388.781 366.614L389.346 366.752L389.79 367.496C386.83 370.543 382.742 373.746 379.677 376.685C370.874 385.123 361.389 393.98 353.054 402.858L352.149 402.176C362.806 390.896 374.198 381.243 384.707 370.534C385.924 369.607 387.811 367.769 388.781 366.614Z" fill="#636566" fill-opacity="0.858824"/>
<path d="M380.139 365.713C380.259 365.323 380.365 364.205 381.081 364.877C383.608 367.245 385.257 359.588 389.324 360.535C390.164 360.731 387.878 363.638 388.093 364.394C388.678 364.804 389.533 364.442 390.857 364.994L389.347 366.752L388.782 366.614C385.8 363.942 385.668 372.221 380.139 365.713Z" fill="#FDFDFD" fill-opacity="0.278431"/>
<path d="M239.164 201.107C239.307 201.175 242.057 202.786 241.051 202.612C244.207 203.159 247.539 195.777 250.523 199.337C251.526 200.534 251.665 201.787 252.933 203.237C252.697 203.847 252.508 204.148 252.188 204.737C248.416 202.385 250.34 198.89 241.78 204.074C237.315 206.777 239.044 203.686 238.902 203.116C238.113 202.898 238.006 203.01 237.356 202.493C238.057 202.015 238.516 201.64 239.164 201.107Z" fill="#FDFDFD" fill-opacity="0.0431373"/>
<path d="M383.403 347.373L384.042 347.68C390.898 351.055 387.728 348.059 394.651 348.029C394.848 349.289 395.07 350.209 395.345 351.439L394.852 351.446C392.833 351.191 391.6 351.101 389.529 351.367C386.567 351.369 384.311 351.357 381.356 351.094C382.033 349.837 382.6 348.526 383.403 347.373Z" fill="#FDFDFD" fill-opacity="0.14902"/>
<path d="M377.655 359.801C379.849 362.648 377.172 362.592 380.139 365.713C385.668 372.221 385.8 363.942 388.782 366.614C387.812 367.769 385.925 369.607 384.708 370.534C383.18 370.537 383.051 370.458 381.62 370.877C380.576 369.709 381.152 369.388 379.673 368.118C376.649 365.524 377.437 366.227 376.427 363.158C376.847 362.229 377.285 360.809 377.655 359.801Z" fill="#FDFDFD" fill-opacity="0.168627"/>
<path d="M504.348 284.263C504.843 284.467 505.298 284.683 505.784 284.908C505.299 285.237 504.815 285.566 504.33 285.895L497.769 290.378C494.492 292.65 494.231 291.913 493.024 294.927C491.941 295.706 491.683 293.489 489.879 297.229C489.294 296.088 490.087 295.252 488.077 296.582C485.981 297.969 484.66 298.848 482.297 299.523L482.86 299.06C484.602 297.597 487.106 296.635 488.7 295.185C490.654 293.407 493.042 293.65 492.158 291.233C493.025 290.925 492.092 291.212 493.004 291.16C496.347 290.971 499.947 286.973 502.842 285.375C503.144 285.208 503.943 284.504 504.348 284.263Z" fill="#6A6D6D" fill-opacity="0.956863"/>
<path d="M421.949 311.147C432.664 312.036 425.389 316.371 420.257 315.147C419.142 314.881 418.907 313.371 417.975 312.18C418.658 312.023 419.336 311.889 420.012 311.702L421.949 311.147Z" fill="#FDFDFD" fill-opacity="0.309804"/>
<path d="M403.023 355.977C404.1 355.198 405.185 354.431 406.278 353.675L407.085 353.099C409.169 351.624 412.339 349.049 414.478 347.866C414.877 347.887 415.136 348.148 415.487 348.382L414.915 349.927C413.083 351.49 414.459 351.829 411.485 352.136C409.372 352.353 411.458 353.427 411.651 354.726C408.718 354.966 405.932 355.513 403.023 355.977Z" fill="#E4DCD1" fill-opacity="0.988235"/>
<path d="M381.146 351.46L381.357 351.094C384.312 351.357 386.567 351.369 389.529 351.367C388.555 352.68 385.804 354.392 386.109 354.797C386.819 355.739 385.532 362.586 382.43 359.626L382.412 359.529C382.56 359.39 387.338 357.334 384.818 355.17C382.647 353.984 382.244 353.733 381.146 351.46Z" fill="url(#paint3_linear_117_11984)"/>
<path d="M240.875 225.995C242.085 226.09 243.315 226.04 244.569 226.12C245.917 228.775 246.348 233.654 245.051 236.19C243.545 232.943 242.163 229.341 240.875 225.995Z" fill="#FDFDFD" fill-opacity="0.988235"/>
<path d="M247.857 215.17C241.015 216.044 242.509 205.381 248.3 206.986C249.15 207.222 248.561 208.504 248.364 209.13C245.092 207.59 245.117 213.381 246.495 213.672C247.014 213.273 247.528 212.903 248.078 212.55L248.246 213.583L247.857 215.17Z" fill="#FDFDFD" fill-opacity="0.0666667"/>
<path d="M237.638 222.671C238.903 224.631 239.368 225.886 240.372 227.918C239.28 231.479 240.555 232.376 237.414 230.548C236.926 230.163 236.687 229.977 236.2 229.648C236.556 226.974 236.101 224.53 237.638 222.671Z" fill="#FDFDFD" fill-opacity="0.203922"/>
<path d="M395.346 351.438L395.919 352.164L396.196 353.076C396.509 354.192 396.915 355.275 397.359 356.346C395.64 355.732 395.243 361.111 391.875 357.326L391.688 356.74C392.974 351.084 395.325 355.103 394.932 352.138L394.852 351.445L395.346 351.438Z" fill="#FDFDFD" fill-opacity="0.235294"/>
<path d="M257.492 243.452C257.62 243.988 257.739 244.526 257.851 245.066C257.569 246.985 257.265 247.014 258.048 248.722C257.639 250.534 256.337 249.906 256.272 251.31C256.19 253.09 256.44 252.86 255.426 254.397C254.554 253.645 252.301 249.357 251.707 248.202C255.768 249.05 256.153 251.566 257.492 243.452Z" fill="#FDFDFD" fill-opacity="0.141176"/>
<path d="M451.864 320.61L452.194 320.377C454.274 325.101 458.59 324.974 462.798 325.711C457.989 325.767 454.156 325.311 449.16 326.095C450.133 321.794 452.888 325.656 451.864 320.61Z" fill="#FDFDFD" fill-opacity="0.556863"/>
<path d="M376.426 363.158C377.436 366.227 376.648 365.524 379.672 368.118C381.151 369.388 380.575 369.709 381.619 370.877C377.921 375.769 378.119 371.495 377.486 368.788C377.1 367.135 376.684 367.134 375.693 365.742C375.931 364.832 376.128 364.053 376.426 363.158Z" fill="#FDFDFD" fill-opacity="0.0745098"/>
<path d="M240.372 227.918C242.377 231.474 243.436 234.922 244.784 238.718C242.649 236.417 240.044 233.401 237.749 231.375L237.414 230.548C240.555 232.376 239.28 231.479 240.372 227.918Z" fill="#FDFDFD" fill-opacity="0.639216"/>
<path d="M420.193 335.084C425.575 335.091 424.264 334.581 424.599 339.154C424.194 339.474 424.243 339.401 423.96 339.771C420.955 337.14 418.907 339.473 419.75 335.359L420.193 335.084Z" fill="#FDFDFD" fill-opacity="0.298039"/>
<path d="M255.63 235.903C255.726 236.135 258.105 240.968 258.019 240.343C257.57 241.108 257.493 241.526 257.217 242.389C255.203 238.95 254.832 240.705 251.59 243.115C252.226 240.761 254.23 238.218 255.63 235.903Z" fill="#FDFDFD" fill-opacity="0.0980392"/>
<path d="M411.652 354.726C411.459 353.427 409.373 352.353 411.486 352.136C414.46 351.829 413.084 351.49 414.916 349.927C415.289 350.614 415.673 351.294 416.069 351.968C417.404 355.077 413.352 354.359 411.652 354.726Z" fill="#FDFDFD" fill-opacity="0.839216"/>
<path d="M432.863 327.1L434.426 328.504C435.296 328.569 435.896 329.278 436.665 329.8C436.228 330.457 435.844 330.955 435.366 331.578L434.98 331.497L431.859 330.362C431.25 330.247 429.441 330.153 429.652 329.163C430.786 328.587 430.878 327.734 432.863 327.1Z" fill="#FDFDFD" fill-opacity="0.427451"/>
<path d="M329.613 458.854C330.979 461.14 330.24 461.656 331.017 463.693C331.216 465.339 331.553 467.277 331.61 468.878C330.584 469.133 330.347 470.095 329.762 471.011C329.555 468.176 329.212 461.517 329.613 458.854Z" fill="#FDFDFD"/>
<path d="M381.145 351.46C382.243 353.733 382.647 353.984 384.818 355.17C383.871 360.409 380.455 359.142 380.605 357.853C382.603 356.178 381.694 354.45 380.93 352.23L381.145 351.46Z" fill="#FDFDFD" fill-opacity="0.231373"/>
<path d="M347.713 401.792C348.294 402.449 348.567 403.093 348.988 403.876C349.009 404.489 349.407 405.119 349.333 405.205C347.825 406.983 346.145 408.984 344.177 410.263C345.178 407.434 346.256 404.416 347.713 401.792Z" fill="#FDFDFD" fill-opacity="0.984314"/>
<path d="M437.619 193.712C439.042 194.539 438.183 191.986 441.53 192.366C439.982 195.488 438.489 198.484 437.002 201.645C437.124 199.806 437.185 195.092 437.619 193.712Z" fill="#E4DCD1" fill-opacity="0.988235"/>
<path d="M327.742 466.246C327.709 467.767 328.064 474.047 327.594 475.55C327.515 475.803 325.991 475.634 325.629 475.606C325.87 472.298 326.473 469.501 326.773 466.345L327.742 466.246Z" fill="#FDFDFD"/>
<path d="M352.149 402.176L353.055 402.858C350.257 405.664 347.189 409.19 344.575 411.697C344.136 410.943 344.025 410.997 344.177 410.263C346.145 408.984 347.825 406.983 349.333 405.205C349.407 405.119 349.008 404.489 348.987 403.876C349.801 404.329 350.218 404.06 350.883 403.419L352.149 402.176Z" fill="#4D5052" fill-opacity="0.956863"/>
<path d="M356.745 264.413C357.391 264.284 358.039 264.169 358.69 264.069C358.382 265.541 357.944 268.823 356.595 269.481C355.315 270.105 357.258 267.499 354.219 266.641C355.803 265.524 355.437 266.265 356.745 264.413Z" fill="#FDFDFD" fill-opacity="0.537255"/>
<path d="M227.012 297.743C227.883 297.574 228.753 297.396 229.621 297.209L229.363 297.982C227.709 302.708 228.502 302.642 228.611 306.87L227.744 306.779C227.667 303.489 227.05 300.988 227.012 297.743Z" fill="#818584" fill-opacity="0.980392"/>
<path d="M327.326 463.18C327.348 462.704 327.259 462.166 327.757 461.954C328.624 462.205 328.019 467.117 328.08 468.044C328.263 470.799 328.415 473.684 328.274 476.44C327.305 476.465 326.401 476.315 325.442 476.174C325.471 475.906 325.493 475.929 325.628 475.606C325.99 475.634 327.514 475.803 327.593 475.55C328.063 474.047 327.708 467.767 327.741 466.246C327.616 465.195 327.516 464.224 327.326 463.18Z" fill="#636566" fill-opacity="0.956863"/>
<path d="M244.569 226.12C245.137 226.07 245.706 226.02 246.274 225.97C246.094 230.892 246.225 235.054 246.375 239.964C245.947 238.906 245.287 237.25 245.051 236.19C246.348 233.654 245.917 228.775 244.569 226.12Z" fill="#BABCBD" fill-opacity="0.980392"/>
<path d="M248.078 212.55C247.528 212.903 247.014 213.273 246.495 213.672C245.117 213.381 245.092 207.59 248.364 209.13C248.305 210.332 248.216 211.349 248.078 212.55Z" fill="#FDFDFD" fill-opacity="0.01"/>
<path d="M227.743 306.779L228.61 306.87C228.971 308.635 229.22 309.533 229.833 311.278C228.63 311.892 228.198 312.058 226.916 312.5C226.862 310.591 227.49 308.736 227.743 306.779Z" fill="#E4DCD1" fill-opacity="0.988235"/>
<path d="M391.876 357.327C391.814 357.66 391.752 357.993 391.69 358.326C390.562 361.039 386.745 356.022 389.457 355.354C389.987 355.223 391.223 356.331 391.689 356.741L391.876 357.327Z" fill="#FDFDFD" fill-opacity="0.647059"/>
<path d="M380.931 352.229C381.695 354.449 382.604 356.177 380.606 357.852L378.888 356.812C379.62 355.047 380.058 353.95 380.931 352.229Z" fill="#FDFDFD" fill-opacity="0.180392"/>
<path d="M543.739 245.726C549.643 243.856 549.427 243.524 547.165 249.946C546.98 245.507 548.215 246.168 544.72 245.826L543.739 245.726Z" fill="#A8ACAC" fill-opacity="0.988235"/>
<path d="M258.019 240.343C259.109 243.182 259.268 243.494 259.203 246.297C258.311 246.035 258.287 245.924 257.852 245.066C257.74 244.526 257.621 243.988 257.493 243.452L257.217 242.389C257.493 241.526 257.57 241.108 258.019 240.343Z" fill="#FDFDFD" fill-opacity="0.854902"/>
<path d="M412.237 341.826C414.25 337.199 416.87 342.051 413.349 342.821C413.04 342.892 412.732 342.967 412.426 343.048L412.237 341.826Z" fill="#FDFDFD" fill-opacity="0.243137"/>
<path d="M257.852 245.066C258.287 245.924 258.311 246.035 259.203 246.297C258.851 247.322 258.564 247.777 258.049 248.722C257.266 247.014 257.57 246.985 257.852 245.066Z" fill="#FDFDFD" fill-opacity="0.611765"/>
<path d="M328.402 482.514C329.02 485.399 328.975 486.68 328.381 489.573C328.256 486.919 328.261 485.21 328.402 482.514Z" fill="#0C0B0B" fill-opacity="0.67451"/>
<path d="M465.631 299.862C465.725 299.857 465.819 299.851 465.914 299.846C466.088 300.055 465.996 300.457 465.984 300.701C465.726 300.773 465.668 300.845 465.481 300.767C465.47 300.459 465.55 300.178 465.631 299.862Z" fill="#FDFDFD" fill-opacity="0.0470588"/>
<path d="M327.326 463.18C327.516 464.224 327.616 465.195 327.741 466.246L326.772 466.345C326.932 465.174 327.067 464.337 327.326 463.18Z" fill="#A8ACAC" fill-opacity="0.976471"/>
<defs>
<linearGradient id="paint0_linear_117_11984" x1="362.684" y1="284.663" x2="357.499" y2="281.292" gradientUnits="userSpaceOnUse">
<stop stop-color="#F7F7F5" stop-opacity="0.968627"/>
<stop offset="1" stop-color="#F7F4F2"/>
</linearGradient>
<linearGradient id="paint1_linear_117_11984" x1="236.72" y1="208.864" x2="250.491" y2="208.072" gradientUnits="userSpaceOnUse">
<stop stop-color="white" stop-opacity="0.0901961"/>
<stop offset="1" stop-color="white" stop-opacity="0.184314"/>
</linearGradient>
<linearGradient id="paint2_linear_117_11984" x1="419.996" y1="322.998" x2="426.112" y2="326.955" gradientUnits="userSpaceOnUse">
<stop stop-color="#FFFFFE" stop-opacity="0.454902"/>
<stop offset="1" stop-color="white" stop-opacity="0.513726"/>
</linearGradient>
<linearGradient id="paint3_linear_117_11984" x1="381.698" y1="352.315" x2="386.248" y2="352.971" gradientUnits="userSpaceOnUse">
<stop stop-color="#FDFAFA" stop-opacity="0.262745"/>
<stop offset="1" stop-color="#FDFCFA" stop-opacity="0.313726"/>
</linearGradient>
</defs>
</svg>
